<?xml version="1.0" standalone="no"?>
<!DOCTYPE svg PUBLIC "-//W3C//DTD SVG 1.1//EN" "http://www.w3.org/Graphics/SVG/1.1/DTD/svg11.dtd" >
<svg xmlns="http://www.w3.org/2000/svg">
<metadata>Generated by IcoMoon</metadata>
<defs>
<font id="icomoon" horiz-adv-x="1024">
<font-face units-per-em="1024" ascent="960" descent="-64" />
<missing-glyph horiz-adv-x="1024" />
<glyph unicode="&#x20;" horiz-adv-x="512" d="" />
<glyph unicode="&#xe600;" glyph-name="add" d="M672 352h-128v128c0 17.664-14.336 32-32 32s-32-14.336-32-32v-128h-128c-17.664 0-32-14.336-32-32s14.336-32 32-32h128v-128c0-17.664 14.336-32 32-32s32 14.336 32 32v128h128c17.664 0 32 14.336 32 32s-14.336 32-32 32zM928.64 672c0 10.784-5.312 20.32-13.504 26.112l-252.512 252.544c-2.72 2.72-5.952 4.672-9.312 6.24-0.864 0.416-1.76 0.64-2.688 0.96-2.88 1.024-5.824 1.632-8.864 1.792-0.608 0.032-1.12 0.352-1.76 0.352h-447.872c-52.992 0-96.128-43.104-96.128-96.096v-831.68c0-53.024 43.136-96.224 96.128-96.224h639.744c52.992 0 96.736 43.2 96.736 96.224 0.032 0 0.032 638.656 0.032 639.776zM672 850.752l146.752-146.752h-146.752v146.752zM831.872 0h-639.744c-17.408 0-32.128 14.752-32.128 32.224v831.68c0 17.696 14.432 32.096 32.128 32.096h415.872v-224c0-17.664 14.336-32 32-32h224v-607.776c0-17.472-14.72-32.224-32.128-32.224z" />
<glyph unicode="&#xe601;" glyph-name="arrow" d="M929.76 736h-819.84l171.296 169.248c12.576 12.416 12.704 32.672 0.288 45.248-12.448 12.576-32.672 12.672-45.248 0.256l-226.72-224c0 0-0.032-0.032-0.032-0.064-0.064-0.032-0.128-0.032-0.16-0.064-0.448-0.416-0.576-1.024-0.96-1.44-2.368-2.656-4.512-5.536-5.888-8.864 0-0.064-0.064-0.128-0.064-0.192-0.896-2.112-0.96-4.32-1.344-6.528-0.352-1.824-1.056-3.616-1.088-5.504 0-0.032 0-0.064 0-0.096v0c0-2.080 0.768-4.064 1.184-6.144 0.384-1.952 0.384-3.936 1.152-5.792 0.032-0.096 0.096-0.192 0.128-0.32 1.248-2.976 3.232-5.472 5.28-7.936 0.576-0.704 0.832-1.632 1.504-2.304 0 0 0.032-0.032 0.064-0.032 0.032-0.032 0.032-0.096 0.064-0.128l226.72-226.24c6.24-6.24 14.432-9.344 22.624-9.344s16.416 3.136 22.656 9.376c12.48 12.512 12.448 32.768-0.032 45.28l-171.968 171.584h820.384c18.080 0 30.24-17.952 30.24-34.688v-605.44c0-18.176-13.024-31.872-30.24-31.872h-897.76c-17.664 0-32-14.336-32-32s14.336-32 32-32h897.76c52.832 0 94.24 42.112 94.24 95.872v605.44c0 54.432-42.304 98.688-94.24 98.688z" />
<glyph unicode="&#xe602;" glyph-name="arrow-bottom" d="M544 928c0 19.2-12.8 32-32 32s-32-12.8-32-32zM854.4 310.4c-12.8 12.8-32 12.8-44.8 0l-265.6-265.6v883.2c0 19.2-12.8 32-32 32s-32-12.8-32-32v-883.2l-265.6 265.6c-12.8 12.8-32 12.8-44.8 0s-12.8-32 0-44.8l320-320c6.4-6.4 16-9.6 22.4-9.6s16 3.2 22.4 9.6l320 320c12.8 12.8 12.8 32 0 44.8z" />
<glyph unicode="&#xe603;" glyph-name="arrow-down" d="M969.6 710.4l-457.6-457.6-457.6 457.6c-12.8 12.8-32 12.8-44.8 0s-12.8-32 0-44.8l480-480c0 0 0 0 0 0 6.4-6.4 16-9.6 22.4-9.6 9.6 0 16 3.2 22.4 9.6 0 0 0 0 0 0l480 480c6.4 6.4 9.6 12.8 9.6 22.4s-3.2 16-9.6 22.4c-12.8 12.8-32 12.8-44.8 0z" />
<glyph unicode="&#xe604;" glyph-name="arrow-down-circle" d="M0 448c0-281.6 230.4-512 512-512s512 230.4 512 512c0 281.6-230.4 512-512 512s-512-230.4-512-512zM960 448c0-246.4-201.6-448-448-448s-448 201.6-448 448 201.6 448 448 448 448-201.6 448-448zM480 704v-435.2l-201.6 201.6c-12.8 12.8-32 12.8-44.8 0s-12.8-32 0-44.8l256-256c6.4-6.4 16-9.6 22.4-9.6s16 3.2 22.4 9.6l256 256c6.4 6.4 9.6 16 9.6 22.4s-3.2 16-9.6 22.4c-12.8 12.8-32 12.8-44.8 0l-201.6-201.6v435.2c0 19.2-12.8 32-32 32s-32-12.8-32-32z" />
<glyph unicode="&#xe605;" glyph-name="arrow-left" d="M774.4-9.6l-457.6 457.6 457.6 457.6c12.768 12.8 12.768 32 0 44.8-12.8 12.8-32 12.8-44.8 0l-480-480c-6.4-6.4-9.6-16-9.6-22.4 0-9.6 3.2-16 9.6-22.4v0l480-480c6.4-6.4 16-9.6 22.4-9.6s16 3.2 22.4 9.6c12.8 12.8 12.8 32 0 44.8z" />
<glyph unicode="&#xe606;" glyph-name="arrow-left-circle" d="M512 960c-281.6 0-512-230.4-512-512s230.4-512 512-512 512 230.4 512 512-230.4 512-512 512zM512 0c-246.4 0-448 201.6-448 448s201.6 448 448 448 448-201.6 448-448-201.6-448-448-448zM768 480h-435.2l201.6 201.6c12.8 12.8 12.8 32 0 44.8s-32 12.8-44.8 0l-256-256c-6.4-6.4-9.6-12.8-9.6-22.4s3.2-16 9.6-22.4l256-256c6.4-6.4 16-9.6 22.4-9.6s16 3.2 22.4 9.6c12.8 12.8 12.8 32 0 44.8l-201.6 201.6h435.2c19.2 0 32 12.8 32 32s-12.8 32-32 32z" />
<glyph unicode="&#xe607;" glyph-name="arrow-right" d="M249.6-9.6l457.6 457.6-457.6 457.6c-12.8 12.8-12.8 32 0 44.8s32 12.8 44.8 0l480-480c0 0 0 0 0 0 6.4-6.4 9.6-16 9.6-22.4 0-9.6-3.2-16-9.6-22.4 0 0 0 0 0 0l-480-480c-6.4-6.4-12.8-9.6-22.4-9.6s-16 3.2-22.4 9.6c-12.8 12.8-12.8 32 0 44.8z" />
<glyph unicode="&#xe608;" glyph-name="arrow-right-circle" d="M0 448c0-281.6 230.4-512 512-512s512 230.4 512 512-230.4 512-512 512-512-230.4-512-512zM64 448c0 246.4 201.6 448 448 448s448-201.6 448-448-201.6-448-448-448-448 201.6-448 448zM256 480h435.2l-201.6 201.6c-12.8 12.8-12.8 32 0 44.8s32 12.8 44.8 0l256-256c6.4-6.4 9.6-16 9.6-22.4s-3.2-16-9.6-22.4l-256-256c-6.4-6.4-12.8-9.6-22.4-9.6s-16 3.2-22.4 9.6c-12.8 12.8-12.8 32 0 44.8l201.6 201.6h-435.2c-19.2 0-32 12.8-32 32s12.8 32 32 32z" />
<glyph unicode="&#xe609;" glyph-name="arrow-top" d="M854.4 585.6c-12.8-12.8-32-12.8-44.8 0l-265.6 265.6v-883.2c0-19.2-12.8-32-32-32s-32 12.8-32 32v883.2l-265.6-265.6c-12.8-12.8-32-12.8-44.8 0s-12.8 32 0 44.8l320 320c6.4 6.4 12.8 9.6 22.4 9.6s16-3.2 22.4-9.6l320-320c12.8-12.8 12.8-32 0-44.8z" />
<glyph unicode="&#xe60a;" glyph-name="arrow-up" d="M969.6 185.6l-457.6 457.6-457.6-457.6c-12.8-12.8-32-12.8-44.8 0s-12.8 32 0 44.8l480 480c0 0 0 0 0 0 6.4 6.4 16 9.6 22.4 9.6 9.6 0 16-3.2 22.4-9.6 0 0 0 0 0 0l480-480c6.4-6.4 9.6-16 9.6-22.4s-3.2-16-9.6-22.4c-12.8-12.8-32-12.8-44.8 0z" />
<glyph unicode="&#xe60b;" glyph-name="arrow-up-circle" d="M512-64c281.6 0 512 230.4 512 512s-230.4 512-512 512-512-230.4-512-512c0-281.6 230.4-512 512-512zM512 0c-246.4 0-448 201.6-448 448s201.6 448 448 448 448-201.6 448-448-201.6-448-448-448zM480 192v435.2l-201.6-201.6c-12.8-12.8-32-12.8-44.8 0s-12.8 32 0 44.8l256 256c6.4 6.4 12.8 9.6 22.4 9.6s16-3.2 22.4-9.6l256-256c6.4-6.4 9.6-16 9.6-22.4s-3.2-16-9.6-22.4c-12.8-12.8-32-12.8-44.8 0l-201.6 201.6v-435.2c0-19.2-12.8-32-32-32s-32 12.8-32 32z" />
<glyph unicode="&#xe60c;" glyph-name="ban" d="M512 960c-282.304 0-512-229.696-512-512s229.696-512 512-512c282.304 0 512 229.696 512 512s-229.696 512-512 512zM64 448c0 112.096 41.696 214.464 109.984 293.12l631.136-631.136c-78.656-68.288-181.024-109.984-293.12-109.984-247.040 0-448 200.928-448 448zM850.368 155.264l-631.104 631.072c78.592 68.128 180.8 109.664 292.736 109.664 247.072 0 448-200.96 448-448 0-111.936-41.536-214.112-109.632-292.736z" />
<glyph unicode="&#xe60d;" glyph-name="bars" d="M992 0h-960c-19.2 0-32-12.8-32-32s12.8-32 32-32h960c19.2 0 32 12.8 32 32s-12.8 32-32 32zM416 64c19.2 0 32 12.8 32 32v832c0 19.2-12.8 32-32 32s-32-12.8-32-32v-832c0-19.2 12.8-32 32-32zM192 64c19.2 0 32 12.8 32 32v672c0 19.2-12.8 32-32 32s-32-12.8-32-32v-672c0-19.2 12.8-32 32-32zM640 64c19.2 0 32 12.8 32 32v576c0 19.2-12.8 32-32 32s-32-12.8-32-32v-576c0-19.2 12.8-32 32-32zM864 64c19.2 0 32 12.8 32 32v256c0 19.2-12.8 32-32 32s-32-12.8-32-32v-256c0-19.2 12.8-32 32-32z" />
<glyph unicode="&#xe60e;" glyph-name="bell" d="M841.6 233.6c-3.2 3.2-6.4 3.2-9.6 6.4v272c0 128-76.8 243.2-188.8 294.4 0 0-3.2 3.2-6.4 6.4 3.2 16 3.2 38.4 0 60.8-9.6 32-35.2 89.6-128 89.6-73.6 0-121.6-48-121.6-128 0-6.4 0-16 3.2-25.6v0c-121.6-54.4-198.4-169.6-198.4-297.6l6.4-272c-3.2 0-3.2-3.2-6.4-3.2-35.2-19.2-96-54.4-96-108.8 0-38.4 25.6-64 64-64h195.2c16-70.4 80-128 156.8-128s140.8 54.4 153.6 128h198.4c32 0 64 32 64 64 0 51.2-54.4 83.2-86.4 105.6zM512 0c-38.4 0-76.8 28.8-89.6 64h179.2c-12.8-38.4-48-64-89.6-64zM160 128c0 16 48 44.8 64 51.2 22.4 12.8 38.4 22.4 38.4 44.8l-6.4 288c0 99.2 64 195.2 160 236.8 28.8 12.8 44.8 41.6 38.4 73.6 0 3.2 0 3.2-3.2 6.4v3.2c0 57.6 32 64 57.6 64 48 0 60.8-22.4 64-38.4 3.2-12.8 3.2-25.6 0-35.2-6.4-28.8 12.8-60.8 41.6-76.8 92.8-38.4 153.6-131.2 153.6-233.6v-288c0-22.4 19.2-32 41.6-48 16-9.6 54.4-32 54.4-48h-704zM672 256h-320c-19.2 0-32-12.8-32-32s12.8-32 32-32h320c19.2 0 32 12.8 32 32s-12.8 32-32 32z" />
<glyph unicode="&#xe60f;" glyph-name="book" d="M782.336 960h-632.992c-52.928 0-85.344-44.768-85.344-97.728v-832.032c0-52.896 32.416-94.24 85.344-94.24h810.656v1024h-177.664zM896 0h-746.656c-17.664 0-21.344 12.64-21.344 30.24v54.336c0 17.6 3.68 43.424 21.344 43.424h746.656v-128zM787.616 192h-638.272c-7.584 0-14.624-1.376-21.344-3.424v673.696c0 17.664 3.68 33.728 21.344 33.728h746.656v-704h-108.384z" />
<glyph unicode="&#xe610;" glyph-name="calendar" d="M224 224h96v-96h-96v96zM544 224h96v-96h-96v96zM384 224h96v-96h-96v96zM704 224h96v-96h-96v96zM704 352h96v-96h-96v96zM704 512h96v-96h-96v96zM401.376 262.976c0.832 12.352 1.632 22.784 2.4 31.328 0.768 8.576 1.344 15.68 1.696 21.376-7.808-0.832-14.368-1.376-19.68-1.632s-14.816-0.512-28.48-0.672c-13.696-0.256-22.816-0.384-27.424-0.384l-19.488 0.192c17.248 15.616 32.064 29.792 44.352 42.368 12.896 13.248 24.256 26.112 34.048 38.624 6.624 8.288 12.192 16.672 16.672 25.248 3.552 6.912 5.984 12.832 7.296 18.016 1.28 5.344 1.952 10.72 1.952 16.192 0 8.32-2.24 16.032-6.72 23.232-4.512 7.2-11.264 13.472-20.256 18.88-8.96 5.408-19.168 9.216-30.496 11.456-11.36 2.24-23.264 3.392-35.68 3.392-27.2 0-56.352-2.624-87.456-7.84-2.016-14.464-3.52-24.288-4.608-29.376l-4.64-25.44c15.84 4.032 28.384 6.752 37.536 8.192 9.152 1.408 17.888 2.112 26.144 2.112 6.016 0 11.424-0.544 16.16-1.6s8.736-2.496 12.064-4.288c3.328-1.792 5.76-3.936 7.296-6.496s2.304-5.568 2.304-8.992c0-2.592-0.48-5.152-1.44-7.648-1.28-3.552-3.968-8-7.968-13.344-7.008-9.024-15.616-18.944-25.92-29.76-12.896-13.504-27.68-28-44.384-43.424-10.272-9.472-21.568-19.328-33.888-29.376-0.48-9.6-0.864-18.976-1.152-28.192-0.288-9.184-0.672-16.576-1.152-22.112 26.848 0.256 59.68 0.384 98.464 0.384 32.192-0.064 63.008-0.128 92.448-0.416zM541.664 316.864c-7.296-2.688-15.264-4.064-23.872-4.064-16.096 0-36.384 3.456-60.864 10.496 1.184-10.688 2.016-18.368 2.4-23.104 0.416-4.704 0.8-10.016 1.152-15.776l1.248-17.952c8.864-2.016 16.128-3.488 21.824-4.448s12.672-1.856 20.928-2.624c8.256-0.736 15.424-1.12 21.472-1.12 16 0 31.552 1.568 46.72 4.672 15.264 3.136 28.608 8.256 40.128 15.328 11.488 7.072 20.64 16.544 27.264 28.48s9.952 24.384 9.952 37.28c0 13.28-3.264 25.216-9.792 35.776-6.464 10.56-16.768 18.784-30.88 24.672-14.080 5.888-30.336 8.768-48.768 8.768-4.416 0-10.56-0.32-18.496-0.896l3.584 40.768c8.416 0.224 14.432 0.352 18.080 0.352 10.912 0 20-0.064 27.328-0.192h17.216l11.040-0.16 23.552-0.896 0.864 24.224c0.256 7.232 0.864 16.992 2.016 29.344-23.232-0.224-52.192-0.352-86.944-0.352-27.424 0-56 0.128-85.664 0.352-0.384-10.048-0.704-17.984-1.088-23.648l-9.088-114.976c12.416 1.696 22.24 2.752 29.536 3.328s14.688 0.8 22.24 0.8c17.024 0 29.568-2.24 37.536-6.752 8-4.48 12-11.040 12-19.68 0-5.984-1.984-11.424-5.888-16.448-3.904-4.992-9.536-8.768-16.736-11.552zM832.736 832h-0.736v70.496c0 31.712-28.672 57.504-64 57.504s-64-25.792-64-57.504v-70.496h-128v70.496c0 31.712-28.672 57.504-64 57.504-35.296 0-64-25.792-64-57.504v-70.496h-128v70.496c0 31.712-28.704 57.504-64 57.504s-64-25.792-64-57.504v-70.56c-70.304-0.448-128-55.232-128-125.856v-705.856c0-35.488 29.056-64.224 64.416-64.224h768c35.328 0 63.584 28.736 63.584 64.192v709.632c0 69.152-57.824 122.176-127.264 122.176zM736 832v70.496c0 14.112 14.304 25.504 32 25.504s32-11.392 32-25.504v-153.056c0-14.048-14.304-25.472-32-25.472s-32 11.392-32 25.472v82.56zM480 832v70.496c0 14.112 14.304 25.504 32 25.504s32-11.392 32-25.504v-153.056c0-14.048-14.304-25.472-32-25.472s-32 11.392-32 25.472v82.56zM224 832v70.496c0 14.112 14.304 25.504 32 25.504s32-11.392 32-25.504v-153.056c0-14.080-14.304-25.472-32-25.472s-32 11.392-32 25.472v82.56zM896 384v-384h-768v640h768v-256z" />
<glyph unicode="&#xe611;" glyph-name="camera" d="M927.872 736h-136.672l-24.32 78.688c-12.16 50.912-47.68 81.312-95.136 81.312h-320c-47.232 0-79.072-26.816-94.464-79.040l-25.856-80.96h-135.552c-53.76 0-95.872-40.864-95.872-93.056v-547.072c0-52.864 43.008-95.872 95.872-95.872h832c52.992 0 96.128 43.008 96.128 95.872v547.072c0 52.192-42.176 93.056-96.128 93.056zM960 95.872c0-17.568-14.4-31.872-32.128-31.872h-832c-17.568 0-31.872 14.304-31.872 31.872v547.072c0 19.072 16.032 29.056 31.872 29.056h160.128c16.544 0 29.664 12.672 31.328 28.768l31.104 97.408c9.248 31.328 20.096 33.824 33.312 33.824h320c7.488 0 25.184 0 33.408-34.144l32-103.872c4.256-13.792 16.896-22.592 30.592-22.592 1.376 0 2.784 0.448 4.192 0.64h155.936c15.968-0.032 32.128-10.016 32.128-29.088v-547.072zM512 608c-123.52 0-224-100.512-224-224s100.48-224 224-224c123.488 0 224 100.512 224 224s-100.512 224-224 224zM512 224c-88.224 0-160 71.776-160 160s71.776 160 160 160 160-71.776 160-160-71.776-160-160-160z" />
<glyph unicode="&#xe612;" glyph-name="cancel" d="M869.312 612.512c-93.888 143.968-279.776 160.672-389.312 156.608v155.68c0 19.424-15.776 35.2-35.2 35.2-13.504 0-31.936-19.584-32.416-20.096l-274.208-274.176c-7.040-7.040-10.368-16.384-10.176-25.664 0-0.032 0-0.032 0-0.064 0 0 0-0.032 0-0.064-0.192-9.28 3.136-18.624 10.176-25.664l274.208-274.176c0.48-0.48 18.88-20.096 32.384-20.096 19.424 0 35.2 15.776 35.2 35.2v162.24c423.968 41.536 202.752-581.44 202.752-581.44 205.248 122.112 332.832 452.096 186.592 676.512z" />
<glyph unicode="&#xe613;" glyph-name="cancel-circle" d="M512 960c-282.304 0-512-229.696-512-512s229.696-512 512-512 512 229.696 512 512-229.696 512-512 512zM512 0c-247.040 0-448 200.96-448 448s200.96 448 448 448 448-200.96 448-448-200.96-448-448-448zM726.624 662.624c-12.512 12.512-32.736 12.512-45.248 0l-169.376-169.376-169.376 169.376c-12.512 12.512-32.736 12.512-45.248 0s-12.512-32.736 0-45.248l169.376-169.376-169.376-169.376c-12.512-12.512-12.512-32.736 0-45.248 6.24-6.24 14.432-9.376 22.624-9.376s16.384 3.136 22.624 9.376l169.376 169.376 169.376-169.376c6.24-6.24 14.432-9.376 22.624-9.376s16.384 3.136 22.624 9.376c12.512 12.512 12.512 32.736 0 45.248l-169.376 169.376 169.376 169.376c12.512 12.512 12.512 32.736 0 45.248z" />
<glyph unicode="&#xe614;" glyph-name="check" d="M1014.4 790.4c-12.8 12.8-32 12.8-44.8 0l-617.6-617.6-297.6 297.6c-12.8 12.8-32 12.8-44.8 0s-12.8-32 0-44.8l320-320c6.4-6.4 16-9.6 22.4-9.6s16 3.2 22.4 9.6v0l640 640c12.8 12.8 12.8 32 0 44.8z" />
<glyph unicode="&#xe615;" glyph-name="checkbox-checked" d="M764 618.944l-294.688-278.816-172.16 151.584c-13.28 11.648-33.472 10.4-45.152-2.88s-10.4-33.504 2.88-45.184l193.568-170.432c6.080-5.344 13.6-7.968 21.12-7.968 0.16 0 0.32 0.096 0.512 0.096s0.352-0.096 0.512-0.096c7.904 0 15.808 2.912 22.016 8.736l315.424 298.432c12.832 12.16 13.376 32.416 1.248 45.248-12.192 12.864-32.416 13.408-45.28 1.28zM928 960h-832c-52.928 0-96-43.072-96-96v-832c0-52.928 43.072-96 96-96h832c52.928 0 96 43.072 96 96v832c0 52.928-43.072 96-96 96zM960 32c0-17.664-14.368-32-32-32h-832c-17.632 0-32 14.336-32 32v832c0 17.664 14.368 32 32 32h832c17.632 0 32-14.336 32-32v-832z" />
<glyph unicode="&#xe616;" glyph-name="checkbox-unchecked" d="M928 960h-832c-52.928 0-96-43.072-96-96v-832c0-52.928 43.072-96 96-96h832c52.928 0 96 43.072 96 96v832c0 52.928-43.072 96-96 96zM960 32c0-17.664-14.368-32-32-32h-832c-17.632 0-32 14.336-32 32v832c0 17.664 14.368 32 32 32h832c17.632 0 32-14.336 32-32v-832z" />
<glyph unicode="&#xe617;" glyph-name="checkmark" d="M1014.4 790.4c-12.8 12.8-32 12.8-44.8 0l-617.6-617.6-297.6 297.6c-12.8 12.8-32 12.8-44.8 0s-12.8-32 0-44.8l320-320c6.4-6.4 16-9.6 22.4-9.6s16 3.2 22.4 9.6v0l640 640c12.8 12.8 12.8 32 0 44.8z" />
<glyph unicode="&#xe618;" glyph-name="clipboard" d="M256 686.816v-96c0-17.696 13.696-46.816 31.328-46.816h448c17.664 0 32.672 29.12 32.672 46.816v96c0 17.696-15.008 17.184-32.672 17.184h-95.328v125.984c0 71.84-56.192 130.016-128 130.016s-128-58.176-128-130.016v-125.984h-96.672c0 0-31.328 0.512-31.328-17.184zM511.328 872c35.328 0 64-28.672 64-64s-28.672-64-64-64c-35.328 0-64 28.672-64 64s28.672 64 64 64zM320 416c0-17.673-14.327-32-32-32s-32 14.327-32 32c0 17.673 14.327 32 32 32s32-14.327 32-32zM320 288c0-17.673-14.327-32-32-32s-32 14.327-32 32c0 17.673 14.327 32 32 32s32-14.327 32-32zM320 160c0-17.673-14.327-32-32-32s-32 14.327-32 32c0 17.673 14.327 32 32 32s32-14.327 32-32zM832 800h-96c-17.664 0-32-14.304-32-32s14.336-32 32-32h96c17.632 0 32-14.336 32-32v-672c0-17.664-14.368-32-32-32h-640c-17.632 0-32 14.336-32 32v672c0 17.664 14.368 32 32 32h96c17.664 0 32 14.304 32 32s-14.368 32-32 32h-96c-52.928 0-96-43.072-96-96v-672c0-52.928 43.072-96 96-96h640c52.928 0 96 43.072 96 96v672c0 52.928-43.072 96-96 96zM736 448h-320c-17.664 0-32-14.304-32-32s14.336-32 32-32h320c17.664 0 32 14.304 32 32s-14.336 32-32 32zM736 320h-320c-17.664 0-32-14.304-32-32s14.336-32 32-32h320c17.664 0 32 14.304 32 32s-14.336 32-32 32zM736 192h-320c-17.664 0-32-14.304-32-32s14.336-32 32-32h320c17.664 0 32 14.304 32 32s-14.336 32-32 32z" />
<glyph unicode="&#xe619;" glyph-name="clock" d="M544 465.12v334.88c0 17.696-14.336 32-32 32s-32-14.304-32-32v-352c0-1.056 0.512-1.984 0.608-3.008 0.192-2.208 0.64-4.256 1.28-6.336 0.608-1.984 1.344-3.776 2.272-5.6 0.928-1.76 2.048-3.328 3.328-4.896 1.408-1.728 2.88-3.232 4.64-4.672 0.8-0.672 1.28-1.568 2.144-2.112l192-128c5.44-3.616 11.616-5.376 17.696-5.376 10.336 0 20.48 4.992 26.656 14.24 9.824 14.688 5.824 34.56-8.864 44.384l-177.76 118.496zM512 960c-282.304 0-512-229.696-512-512s229.696-512 512-512c282.304 0 512 229.696 512 512s-229.696 512-512 512zM512 0c-247.040 0-448 200.928-448 448 0 247.040 200.96 448 448 448 247.072 0 448-200.96 448-448 0-247.072-200.928-448-448-448z" />
<glyph unicode="&#xe61a;" glyph-name="close" d="M512 64c17.664 0 32 14.304 32 32v448c0 17.664-14.336 32-32 32s-32-14.336-32-32v-448c0-17.696 14.336-32 32-32zM352 61.728c17.664 0 32 14.304 32 32v452.544c0 17.664-14.336 32-32 32s-32-14.336-32-32v-452.576c0-17.664 14.336-31.968 32-31.968zM672 61.728c17.696 0 32 14.304 32 32v452.544c0 17.664-14.304 32-32 32s-32-14.336-32-32v-452.576c0-17.664 14.304-31.968 32-31.968zM960 800h-192v64c0 52.928-43.072 96-96 96h-320c-52.928 0-96-43.072-96-96v-64h-192c-35.296 0-64-28.704-64-64s28.704-64 64-64h96v-640c0-52.928 43.072-96 96-96h512c52.928 0 96 43.072 96 96v640h96c35.296 0 64 28.704 64 64s-28.704 64-64 64zM320 864c0 17.632 14.368 32 32 32h320c17.664 0 32-14.368 32-32v-64h-384v64zM800 32c0-17.664-14.336-32-32-32h-512c-17.632 0-32 14.336-32 32v640h576v-640z" />
<glyph unicode="&#xe61b;" glyph-name="clothes" d="M1020.8 524.8l-192 384c-6.4 12.8-16 19.2-28.8 19.2h-128c-16 0-28.8-9.6-32-25.6-9.6-57.6-67.2-102.4-128-102.4s-115.2 44.8-128 102.4c-3.2 16-16 25.6-32 25.6h-128c-12.8 0-22.4-6.4-28.8-19.2l-192-384c-3.2-6.4-3.2-16 0-22.4 3.2-9.6 9.6-16 16-19.2l172.8-86.4v-332.8c0-54.4 41.6-96 96-96h448c54.4 0 96 41.6 96 96v332.8l172.8 86.4c16 9.6 22.4 28.8 16 41.6zM825.6 464c-6.4 9.6-12.8 16-25.6 16-19.2 0-32-12.8-32-32v-384c0-19.2-12.8-32-32-32h-448c-19.2 0-32 12.8-32 32v348.8c0 0 0 0 0 0v35.2c0 19.2-12.8 32-32 32-12.8 0-19.2-6.4-25.6-16l-121.6 60.8 166.4 339.2h83.2c25.6-76.8 99.2-128 185.6-128 83.2 0 156.8 51.2 185.6 128h83.2l169.6-339.2-124.8-60.8z" />
<glyph unicode="&#xe61c;" glyph-name="contract" d="M352 832.32c-17.696 0-32-14.304-32-32v-115.072l-265.376 265.376c-12.512 12.512-32.736 12.512-45.248 0s-12.512-32.736 0-45.248l265.12-265.12h-114.464c-17.696 0-32-14.304-32-32s14.304-32 32-32h190.688c0.448-0.032 0.832-0.256 1.28-0.256 8.192 0 16.384 3.136 22.624 9.376 6.272 6.272 9.376 14.528 9.344 22.752 0 0.032 0.032 0.096 0.032 0.128v192.064c0 17.664-14.304 32-32 32zM381.568 300.16c-4.736 11.712-16.16 19.968-29.568 19.968h-191.968c-17.696 0-32-14.304-32-32s14.304-32 32-32h114.848l-265.504-265.504c-12.512-12.512-12.512-32.736 0-45.248 6.24-6.24 14.432-9.376 22.624-9.376s16.384 3.136 22.624 9.376l265.376 265.376v-114.688c0-17.696 14.304-32 32-32s32 14.304 32 32v192.064c0 1.248-0.576 2.304-0.704 3.552-0.352 2.88-0.608 5.76-1.728 8.48zM649.376 585.376c6.24-6.24 14.432-9.376 22.624-9.376 0.448 0 0.8 0.224 1.28 0.256h190.688c17.696 0 32 14.304 32 32s-14.304 32-32 32h-114.464l265.12 265.12c12.512 12.512 12.512 32.736 0 45.248s-32.736 12.512-45.248 0l-265.376-265.376v115.072c0 17.696-14.304 32-32 32s-32-14.304-32-32v-192.064c0-0.032 0.032-0.096 0.032-0.128-0.032-8.224 3.104-16.48 9.344-22.752zM749.12 256.128h114.88c17.696 0 32 14.304 32 32s-14.304 32-32 32h-192c-13.408 0-24.8-8.256-29.568-19.968-1.12-2.72-1.408-5.664-1.76-8.608-0.096-1.152-0.672-2.208-0.672-3.424v-192.128c0-17.696 14.304-32 32-32s32 14.304 32 32v114.752l265.376-265.376c6.24-6.24 14.432-9.376 22.624-9.376s16.384 3.136 22.624 9.376c12.512 12.512 12.512 32.736 0 45.248l-265.504 265.504z" />
<glyph unicode="&#xe61d;" glyph-name="cross" d="M556.8 448l457.6 457.6c12.8 12.8 12.8 32 0 44.8s-32 12.8-44.8 0l-457.6-457.6-457.6 457.6c-12.8 12.8-32 12.8-44.8 0s-12.8-32 0-44.8l457.6-457.6-457.6-457.6c-12.8-12.8-12.8-32 0-44.8 6.4-6.4 12.8-9.6 22.4-9.6s16 3.2 22.4 9.6l457.6 457.6 457.6-457.6c6.4-6.4 16-9.6 22.4-9.6s16 3.2 22.4 9.6c12.8 12.8 12.8 32 0 44.8l-457.6 457.6z" />
<glyph unicode="&#xe61e;" glyph-name="cross-small" d="M556.8 448l329.6 329.6c12.8 12.8 12.8 32 0 44.8s-32 12.8-44.8 0l-329.6-329.6-329.6 329.6c-12.8 12.8-32 12.8-44.8 0s-12.8-32 0-44.8l329.6-329.6-329.6-329.6c-12.8-12.8-12.8-32 0-44.8 6.4-6.4 12.8-9.6 22.4-9.6s16 3.2 22.4 9.6l329.6 329.6 329.6-329.6c6.4-6.4 16-9.6 22.4-9.6s16 3.2 22.4 9.6c12.8 12.8 12.8 32 0 44.8l-329.6 329.6z" />
<glyph unicode="&#xe61f;" glyph-name="cw" d="M900.288 640.064c0.224 9.28-3.136 18.624-10.144 25.664l-274.176 274.176c-0.544 0.512-18.976 20.096-32.48 20.096-19.424 0-35.232-15.776-35.232-35.2v-155.68c-109.536 4.064-295.424-12.64-389.28-156.608-146.272-224.416-18.624-554.4 186.56-676.512 0 0-221.216 622.976 202.752 581.44v-162.24c0-19.392 15.744-35.2 35.232-35.2 13.504 0 31.936 19.616 32.416 20.096l274.144 274.176c7.104 7.072 10.368 16.384 10.176 25.664 0 0.032-0.032 0.032-0.032 0.064 0.032 0.032 0.064 0.032 0.064 0.064z" />
<glyph unicode="&#xe620;" glyph-name="delete" d="M671.552 352h-319.744c-17.632 0-32-14.336-32-32s14.336-32 32-32h319.744c17.696 0 31.936 14.336 31.936 32s-14.24 32-31.936 32zM928 672c0 10.784-5.312 20.32-13.44 26.112l-252.384 252.544c-2.752 2.72-5.952 4.672-9.248 6.24-0.832 0.416-1.888 0.64-2.752 0.96-2.88 1.024-5.824 1.6-8.768 1.76-0.672 0.064-1.12 0.384-1.856 0.384h-447.52c-52.928 0-96.032-43.104-96.032-96.096v-831.68c0-53.024 43.104-96.224 96.032-96.224h639.296c52.928 0 96.672 43.2 96.672 96.224 0 0 0 638.688 0 639.776zM671.552 850.752l146.624-146.752h-146.624v146.752zM831.328 0h-639.296c-17.376 0-32.096 14.752-32.096 32.224v831.68c0.032 17.696 14.432 32.096 32.096 32.096h415.584v-224c0-17.664 14.24-32 31.936-32h223.872v-607.776c0-17.472-14.752-32.224-32.096-32.224z" />
<glyph unicode="&#xe621;" glyph-name="download" d="M406.624 502.624c-12.512 12.512-32.736 12.512-45.248 0s-12.512-32.736 0-45.248l128-128c2.944-2.944 6.496-5.312 10.4-6.912 3.904-1.664 8.064-2.464 12.224-2.464s8.32 0.8 12.224 2.464c3.904 1.632 7.456 3.968 10.4 6.912l128 128c12.512 12.512 12.512 32.736 0 45.248s-32.736 12.512-45.248 0l-73.376-73.376v498.752c0 17.664-14.336 32-32 32s-32-14.336-32-32v-498.752l-73.376 73.376zM864 768h-224c-17.664 0-32-14.336-32-32s14.336-32 32-32h224c17.632 0 32-14.368 32-32v-640c0-17.632-14.368-32-32-32h-704c-17.632 0-32 14.368-32 32v640c0 17.632 14.368 32 32 32h224c17.664 0 32 14.336 32 32s-14.336 32-32 32h-224c-52.928 0-96-43.072-96-96v-640c0-52.928 43.072-96 96-96h704c52.928 0 96 43.072 96 96v640c0 52.928-43.072 96-96 96z" />
<glyph unicode="&#xe622;" glyph-name="edit" d="M995.488 423.616l-506.336 505.792c-19.424 19.456-44.48 30.592-68.8 30.592-0.256 0-0.512 0-0.672 0-1.344 0-2.432-0.608-3.68-0.768v0.768h-323.552v-0.576c-1.024 0.096-1.856 0.576-2.88 0.576-48.576 0-89.568-41.44-89.568-90.464v-328.384c-0.032-1.184-0.032-2.4 0.064-3.584 0.448-24.512 11.136-48.896 29.472-67.232l506.368-505.856c18.336-18.368 42.752-28.48 68.736-28.48 26.016 0 50.368 10.112 68.672 28.512l322.112 321.824c18.464 18.304 28.576 42.688 28.576 68.608s-10.112 50.336-28.512 68.672zM950.176 331.552l-322.144-321.856c-12.544-12.544-34.272-12.576-46.848 0.064l-506.432 505.856c-6.848 6.848-10.752 15.456-10.688 23.648 0 0.736-0.032 1.472-0.064 2.24v328.032c0 14.080 11.936 26.464 25.568 26.464 1.024 0 1.888 0.48 2.88 0.576v-0.576h323.552v0.768c1.344-0.16 2.528-0.768 3.904-0.768 0.096 0 0.192 0 0.288 0 6.432 1.28 16.32-4.448 23.68-11.84l506.368-505.856c6.336-6.24 9.76-14.528 9.76-23.328s-3.424-17.088-9.824-23.424zM384 704c-70.592 0-128-57.408-128-128s57.408-128 128-128 128 57.408 128 128-57.408 128-128 128zM384 512c-35.296 0-64 28.704-64 64s28.704 64 64 64 64-28.704 64-64-28.704-64-64-64z" />
<glyph unicode="&#xe623;" glyph-name="ellipsis" d="M192 448c0-53.019-42.981-96-96-96s-96 42.981-96 96c0 53.019 42.981 96 96 96s96-42.981 96-96zM1024 448c0-53.019-42.981-96-96-96s-96 42.981-96 96c0 53.019 42.981 96 96 96s96-42.981 96-96zM608 448c0-53.019-42.981-96-96-96s-96 42.981-96 96c0 53.019 42.981 96 96 96s96-42.981 96-96z" />
<glyph unicode="&#xe624;" glyph-name="esc" d="M912.672 960h-641.344c-61.376 0-111.328-49.984-111.328-111.36v-48.64h-48.672c-61.376 0-111.328-49.952-111.328-111.328v-641.312c0-61.408 49.952-111.36 111.328-111.36h641.312c61.408 0 111.36 49.952 111.36 111.328v48.672h48.672c61.376 0 111.328 49.984 111.328 111.36v641.28c0 61.376-49.952 111.36-111.328 111.36zM960 207.36c0-26.112-21.248-47.36-47.328-47.36h-48.672v192c0 17.696-14.304 32-32 32s-32-14.304-32-32v-304.672c0-26.080-21.248-47.328-47.328-47.328h-641.344c-26.080 0-47.328 21.248-47.328 47.328v641.344c0 26.080 21.248 47.328 47.328 47.328h304.672c17.696 0 32 14.304 32 32s-14.304 32-32 32h-192v48.64c0 26.112 21.248 47.36 47.328 47.36h641.312c26.112 0 47.36-21.248 47.36-47.36v-641.28zM844.224 797.536c-3.904 1.632-8.064 2.464-12.224 2.464h-224c-17.696 0-32-14.304-32-32s14.304-32 32-32h146.752l-393.376-393.376c-12.512-12.512-12.512-32.736 0-45.248 6.24-6.24 14.432-9.376 22.624-9.376s16.384 3.136 22.624 9.376l393.376 393.376v-146.752c0-17.696 14.304-32 32-32s32 14.304 32 32v224c0 4.16-0.832 8.32-2.464 12.224-3.264 7.84-9.472 14.048-17.312 17.312z" />
<glyph unicode="&#xe625;" glyph-name="expand" d="M32 703.68c17.696 0 32 14.304 32 32v115.072l265.376-265.376c12.512-12.512 32.736-12.512 45.248 0s12.512 32.736 0 45.248l-265.12 265.12h114.464c17.696 0 32 14.304 32 32s-14.304 32-32 32h-190.688c-0.448 0.032-0.832 0.256-1.28 0.256-8.192 0-16.384-3.136-22.624-9.376-6.272-6.272-9.376-14.528-9.344-22.752 0-0.032-0.032-0.096-0.032-0.128v-192.064c0-17.696 14.304-32 32-32zM2.432-44.032c4.768-11.712 16.16-19.968 29.568-19.968h191.968c17.696 0 32 14.304 32 32s-14.304 32-32 32h-114.848l265.504 265.504c12.512 12.512 12.512 32.736 0 45.248-6.24 6.24-14.432 9.376-22.624 9.376s-16.384-3.136-22.624-9.376l-265.376-265.376v114.688c0 17.696-14.304 32-32 32s-32-14.304-32-32v-192.064c0-1.248 0.576-2.304 0.704-3.552 0.352-2.88 0.608-5.76 1.728-8.48zM1014.624 950.624c-6.24 6.24-14.432 9.376-22.624 9.376-0.448 0-0.8-0.224-1.28-0.256h-190.688c-17.696 0-32-14.304-32-32s14.304-32 32-32h114.464l-265.12-265.12c-12.512-12.512-12.512-32.736 0-45.248s32.736-12.512 45.248 0l265.376 265.376v-115.072c0-17.696 14.304-32 32-32s32 14.304 32 32v192.064c0 0.032-0.032 0.096-0.032 0.128 0.032 8.224-3.104 16.48-9.344 22.752zM914.88 0h-114.88c-17.696 0-32-14.304-32-32s14.304-32 32-32h192c13.408 0 24.8 8.256 29.568 19.968 1.12 2.72 1.408 5.664 1.76 8.608 0.096 1.184 0.672 2.208 0.672 3.424v192.128c0 17.696-14.304 32-32 32s-32-14.304-32-32v-114.752l-265.376 265.376c-6.24 6.24-14.432 9.376-22.624 9.376s-16.384-3.136-22.624-9.376c-12.512-12.512-12.512-32.736 0-45.248l265.504-265.504z" />
<glyph unicode="&#xe626;" glyph-name="fast-forward" d="M608 448c0 6.4-3.2 16-9.6 22.4l-480 480c-12.8 12.8-32 12.8-44.8 0s-12.8-32 0-44.8l457.6-457.6-457.6-457.6c-12.8-12.8-12.8-32 0-44.8 6.4-6.4 16-9.6 22.4-9.6s16 3.2 22.4 9.6l480 480c6.4 6.4 9.6 12.8 9.6 22.4zM950.4 470.4l-480 480c-12.8 12.8-32 12.8-44.8 0s-12.8-32 0-44.8l457.6-457.6-457.6-457.6c-12.8-12.8-12.8-32 0-44.8 6.4-6.4 16-9.6 22.4-9.6s16 3.2 22.4 9.6l480 480c6.4 6.4 9.6 12.8 9.6 22.4 0 6.4-3.2 16-9.6 22.4z" />
<glyph unicode="&#xe627;" glyph-name="file-excel" d="M918.4 694.4l-256 256c-6.4 6.4-12.8 9.6-22.4 9.6h-448c-54.4 0-96-41.6-96-96v-832c0-54.4 41.6-96 96-96h640c54.4 0 96 41.6 96 96v640c0 9.6-3.2 16-9.6 22.4zM672 851.2l147.2-147.2h-147.2v147.2zM864 32c0-19.2-16-32-32-32h-640c-19.2 0-32 16-32 32v832c0 19.2 16 32 32 32h416v-224c0-19.2 12.8-32 32-32h224v-608zM585.6 483.2l-76.8-112-76.8 112h-92.8l121.6-169.6-131.2-182.4h179.2v64h-41.6l41.6 57.6 86.4-121.6h92.8l-131.2 179.2 121.6 172.8z" />
<glyph unicode="&#xe628;" glyph-name="file-pdf" d="M918.4 694.4l-256 256c-6.4 6.4-12.8 9.6-22.4 9.6h-448c-54.4 0-96-41.6-96-96v-832c0-54.4 41.6-96 96-96h640c54.4 0 96 41.6 96 96v640c0 9.6-3.2 16-9.6 22.4zM672 851.2l147.2-147.2h-147.2v147.2zM864 32c0-19.2-16-32-32-32h-640c-19.2 0-32 16-32 32v832c0 19.2 16 32 32 32h416v-224c0-19.2 12.8-32 32-32h224v-608zM502.4 425.6v0 0c64 48 48 198.4-22.4 192-22.4-3.2-41.6-9.6-54.4-51.2 0-3.2-19.2-76.8 22.4-144 12.8-19.2-9.6-44.8-44.8-80-19.2-19.2-41.6-41.6-57.6-70.4-38.4 0-73.6-32-73.6-32s-44.8-41.6-35.2-80c3.2-16 16-28.8 41.6-35.2 0 0 3.2 0 6.4 0 19.2 0 83.2 6.4 105.6 89.6 3.2 3.2 9.6 19.2 22.4 38.4v0c0 0 105.6 16 195.2 32 6.4-3.2 48-35.2 92.8-41.6 19.2-3.2 67.2 0 89.6 35.2 9.6 12.8 9.6 51.2-12.8 67.2-12.8 9.6-44.8 28.8-176 3.2-38.4-9.6-76.8 35.2-99.2 76.8zM483.2 553.6c0 0 6.4 3.2 9.6-9.6 0 0 9.6-28.8-12.8-80-6.4 16-6.4 35.2-6.4 51.2 0 19.2 6.4 38.4 9.6 38.4v0zM342.4 217.6c-9.6-19.2-19.2-44.8-48-41.6 0 0-6.4 35.2 48 41.6zM476.8 380.8c16-22.4 32-35.2 64-54.4-35.2-12.8-70.4-25.6-118.4-48 19.2 25.6 38.4 64 54.4 102.4zM665.6 307.2c25.6 22.4 76.8 6.4 76.8 0 0 0-41.6-32-76.8 0z" />
<glyph unicode="&#xe629;" glyph-name="file-ppt" d="M918.4 694.4l-256 256c-6.4 6.4-12.8 9.6-22.4 9.6h-448c-54.4 0-96-41.6-96-96v-832c0-54.4 41.6-96 96-96h640c54.4 0 96 41.6 96 96v640c0 9.6-3.2 16-9.6 22.4zM672 851.2l147.2-147.2h-147.2v147.2zM864 32c0-19.2-16-32-32-32h-640c-19.2 0-32 16-32 32v832c0 19.2 16 32 32 32h416v-224c0-19.2 12.8-32 32-32h224v-608zM544 611.2v0 0c-3.2 0-3.2 0 0 0-3.2 0-3.2 0 0 0h-224c-16 0-32-12.8-32-32 0-16 16-32 32-32h220.8c60.8 0 108.8-41.6 124.8-96 3.2 9.6 3.2 22.4 3.2 32 0 70.4-54.4 124.8-124.8 128zM521.6 515.2c35.2 0 60.8-28.8 60.8-64 0-16-6.4-32-16-44.8-12.8-12.8-28.8-19.2-48-19.2-6.4 0-16 3.2-22.4 3.2-16-12.8-28.8-32-32-51.2 0 0 0 0 0-3.2 19.2-9.6 38.4-12.8 57.6-12.8 22.4 0 44.8 6.4 64 16v0c28.8 16 51.2 44.8 60.8 80-16 54.4-67.2 96-124.8 96zM448 400v6.4h-67.2c-6.4 0-9.6-3.2-12.8-6.4v0 0 0c-9.6-12.8-16-25.6-16-44.8 0 0 0 0 0-3.2v0-192c0-16 16-32 32-32s32 16 32 32v185.6c6.4 22.4 16 41.6 32 54.4v0 0 0 0z" />
<glyph unicode="&#xe62a;" glyph-name="file-txt" d="M918.4 694.4l-256 256c-6.4 6.4-12.8 9.6-22.4 9.6h-448c-54.4 0-96-41.6-96-96v-832c0-54.4 41.6-96 96-96h640c54.4 0 96 41.6 96 96v640c0 9.6-3.2 16-9.6 22.4zM672 851.2l147.2-147.2h-147.2v147.2zM864 32c0-19.2-16-32-32-32h-640c-19.2 0-32 16-32 32v832c0 19.2 16 32 32 32h416v-224c0-19.2 12.8-32 32-32h224v-608zM195.2 419.2h73.6v-291.2h48v291.2h73.6v60.8h-195.2zM617.6 480h-57.6l-48-112-48 112h-57.6l73.6-169.6-83.2-182.4h60.8l54.4 121.6 54.4-121.6h57.6l-83.2 182.4zM633.6 419.2h73.6v-291.2h48v291.2h73.6v60.8h-195.2z" />
<glyph unicode="&#xe62b;" glyph-name="file-word" d="M918.4 694.4l-256 256c-6.4 6.4-12.8 9.6-22.4 9.6h-448c-54.4 0-96-41.6-96-96v-832c0-54.4 41.6-96 96-96h640c54.4 0 96 41.6 96 96v640c0 9.6-3.2 16-9.6 22.4zM672 851.2l147.2-147.2h-147.2v147.2zM864 32c0-19.2-16-32-32-32h-640c-19.2 0-32 16-32 32v832c0 19.2 16 32 32 32h416v-224c0-19.2 12.8-32 32-32h224v-608zM627.2 233.6l-67.2 246.4h-92.8l-73.6-243.2-57.6 243.2h-80l92.8-352h86.4l76.8 262.4 76.8-262.4h83.2l92.8 352h-124.8v-64h32z" />
<glyph unicode="&#xe62c;" glyph-name="file-xml" d="M918.4 694.4l-256 256c-6.4 6.4-12.8 9.6-22.4 9.6h-448c-54.4 0-96-41.6-96-96v-832c0-54.4 41.6-96 96-96h640c54.4 0 96 41.6 96 96v640c0 9.6-3.2 16-9.6 22.4zM672 851.2l147.2-147.2h-147.2v147.2zM864 32c0-19.2-16-32-32-32h-640c-19.2 0-32 16-32 32v832c0 19.2 16 32 32 32h416v-224c0-19.2 12.8-32 32-32h224v-608zM438.4 438.4c-12.8 12.8-32 12.8-44.8 0l-128-128c-12.8-12.8-12.8-32 0-44.8l128-128c6.4-6.4 16-9.6 22.4-9.6s16 3.2 22.4 9.6c12.8 12.8 12.8 32 0 44.8l-105.6 105.6 105.6 105.6c12.8 12.8 12.8 32 0 44.8zM585.6 438.4c-12.8-12.8-12.8-32 0-44.8l105.6-105.6-105.6-105.6c-12.8-12.8-12.8-32 0-44.8 6.4-6.4 16-9.6 22.4-9.6s16 3.2 22.4 9.6l128 128c12.8 12.8 12.8 32 0 44.8l-128 128c-12.8 12.8-32 12.8-44.8 0z" />
<glyph unicode="&#xe62d;" glyph-name="file-zip" d="M918.4 694.4l-256 256c-6.4 6.4-12.8 9.6-22.4 9.6h-448c-54.4 0-96-41.6-96-96v-832c0-54.4 41.6-96 96-96h640c54.4 0 96 41.6 96 96v640c0 9.6-3.2 16-9.6 22.4zM672 851.2l147.2-147.2h-147.2v147.2zM864 32c0-19.2-16-32-32-32h-640c-19.2 0-32 16-32 32v832c0 19.2 16 32 32 32h416v-224c0-19.2 12.8-32 32-32h224v-608zM288 768h96v-64h-96v64zM384 704h96v-64h-96v64zM288 640h96v-64h-96v64zM384 576h96v-64h-96v64zM288 512h96v-64h-96v64zM320 384h-32v-208c0-25.6 22.4-48 48-48h96c25.6 0 48 22.4 48 48v272h-96v-64h-64zM448 176c0-9.6-6.4-16-16-16h-96c-9.6 0-16 6.4-16 16v80h128v-80z" />
<glyph unicode="&#xe62e;" glyph-name="first" d="M512 960c-281.6 0-512-230.4-512-512s230.4-512 512-512 512 230.4 512 512-230.4 512-512 512zM512 0c-246.4 0-448 201.6-448 448s201.6 448 448 448 448-201.6 448-448-201.6-448-448-448zM464 636.8c-12.8 6.4-25.6 3.2-35.2-6.4l-179.2-160c-6.4-6.4-9.6-16-9.6-25.6s3.2-19.2 12.8-25.6l182.4-160c6.4-6.4 16-6.4 22.4-6.4 3.2 0 3.2 0 6.4 3.2 12.8 6.4 16 16 16 28.8v323.2c0 12.8-3.2 22.4-16 28.8zM752 636.8c-12.8 6.4-25.6 3.2-35.2-6.4l-179.2-160c-6.4-6.4-9.6-16-9.6-25.6s3.2-19.2 12.8-25.6l182.4-160c6.4-6.4 16-6.4 22.4-6.4 3.2 0 3.2 0 6.4 3.2 12.8 6.4 16 16 16 28.8v323.2c0 12.8-3.2 22.4-16 28.8z" />
<glyph unicode="&#xe62f;" glyph-name="flow" d="M960 121.6v294.4c0 54.4-41.6 96-96 96h-320v256c0 3.2 0 3.2 0 6.4 38.4 12.8 64 48 64 89.6 0 54.4-41.6 96-96 96s-96-41.6-96-96c0-41.6 28.8-76.8 64-89.6 0-3.2 0-3.2 0-6.4v-256h-320c-54.4 0-96-41.6-96-96v-294.4c-38.4-12.8-64-48-64-89.6 0-54.4 41.6-96 96-96s96 41.6 96 96c0 41.6-25.6 76.8-64 89.6v294.4c0 19.2 12.8 32 32 32h320v-320c0-3.2 0-3.2 0-6.4-38.4-12.8-64-48-64-89.6 0-54.4 41.6-96 96-96s96 41.6 96 96c0 41.6-28.8 76.8-64 89.6 0 3.2 0 3.2 0 6.4v320h320c19.2 0 32-12.8 32-32v-294.4c-38.4-12.8-64-48-64-89.6 0-54.4 41.6-96 96-96s96 41.6 96 96c0 41.6-25.6 76.8-64 89.6zM160 32c0-35.2-28.8-64-64-64s-64 28.8-64 64 28.8 64 64 64 64-28.8 64-64zM448 864c0 35.2 28.8 64 64 64s64-28.8 64-64-28.8-64-64-64-64 28.8-64 64zM576 32c0-35.2-28.8-64-64-64s-64 28.8-64 64 28.8 64 64 64 64-28.8 64-64zM928-32c-35.2 0-64 28.8-64 64s28.8 64 64 64 64-28.8 64-64-28.8-64-64-64z" />
<glyph unicode="&#xe630;" glyph-name="grid" d="M928 960h-832c-54.4 0-96-41.6-96-96v-832c0-54.4 41.6-96 96-96h832c54.4 0 96 41.6 96 96v832c0 54.4-41.6 96-96 96zM960 864v-384h-416v416h384c19.2 0 32-12.8 32-32zM96 896h384v-416h-416v384c0 19.2 12.8 32 32 32zM64 32v384h416v-416h-384c-19.2 0-32 12.8-32 32zM928 0h-384v416h416v-384c0-19.2-12.8-32-32-32z" />
<glyph unicode="&#xe631;" glyph-name="image" d="M928 864h-832c-54.4 0-96-41.6-96-96v-640c0-54.4 41.6-96 96-96h832c54.4 0 96 41.6 96 96v640c0 54.4-41.6 96-96 96zM96 96c-19.2 0-32 12.8-32 32v70.4l272 272 377.6-374.4h-617.6zM960 128c0-19.2-12.8-32-32-32h-124.8l-118.4 115.2 99.2 99.2 176-172.8v-9.6zM960 227.2l-153.6 150.4c-3.2 3.2-9.6 6.4-9.6 6.4-3.2 0-9.6 3.2-12.8 3.2s-9.6-3.2-12.8-3.2c-3.2 0-9.6-6.4-9.6-6.4l-121.6-121.6-281.6 281.6c-3.2 3.2-9.6 6.4-9.6 6.4-3.2 0-9.6 3.2-12.8 3.2s-12.8-3.2-12.8-3.2c-3.2 0-9.6-6.4-9.6-6.4v0 0 0l-249.6-249.6v480c0 19.2 12.8 32 32 32h832c19.2 0 32-12.8 32-32v-540.8zM832 640c0-35.346-28.654-64-64-64s-64 28.654-64 64c0 35.346 28.654 64 64 64s64-28.654 64-64z" />
<glyph unicode="&#xe632;" glyph-name="info" d="M512 960c-281.6 0-512-230.4-512-512s230.4-512 512-512 512 230.4 512 512-230.4 512-512 512zM512 0c-246.4 0-448 201.6-448 448s201.6 448 448 448 448-201.6 448-448-201.6-448-448-448zM560 688c0-26.51-21.49-48-48-48s-48 21.49-48 48c0 26.51 21.49 48 48 48s48-21.49 48-48zM620.8 288l-89.6-76.8 28.8 329.6c0 19.2-12.8 32-28.8 35.2-3.2 0-3.2 0-6.4 0-6.4 0-12.8 0-19.2-6.4l-137.6-115.2c-9.6-9.6-12.8-22.4-3.2-35.2 3.2-6.4 12.8-9.6 19.2-9.6s9.6 3.2 16 6.4l89.6 76.8-28.8-329.6c0-16 12.8-32 28.8-35.2h6.4c6.4 0 9.6 3.2 16 6.4l137.6 115.2c9.6 9.6 12.8 22.4 3.2 35.2-6.4 9.6-19.2 12.8-32 3.2z" />
<glyph unicode="&#xe633;" glyph-name="key" d="M768 816c-60.8 0-112-51.2-112-112s51.2-112 112-112 112 51.2 112 112-51.2 112-112 112zM768 656c-25.6 0-48 22.4-48 48s22.4 48 48 48 48-22.4 48-48-22.4-48-48-48zM704 960c-176 0-320-144-320-320 0-19.2 3.2-41.6 6.4-60.8l-380.8-348.8c-6.4-6.4-9.6-16-9.6-25.6v-236.8c0-19.2 12.8-32 32-32h128c12.8 0 25.6 9.6 28.8 22.4l25.6 73.6h73.6c19.2 0 32 12.8 32 32v64h64c19.2 0 32 12.8 32 32v64h64c9.6 0 19.2 3.2 25.6 9.6l92.8 105.6c28.8-9.6 73.6-19.2 108.8-19.2 176 0 320 144 320 320s-147.2 320-323.2 320zM704 384c-35.2 0-86.4 12.8-105.6 22.4 0 0-9.6 3.2-16 3.2s-9.6-3.2-12.8-3.2c-3.2 0-6.4-3.2-9.6-6.4v0l-96-108.8h-80c-19.2 0-32-12.8-32-32v-64h-64c-19.2 0-32-12.8-32-32v-64h-64c-12.8 0-25.6-9.6-28.8-22.4l-25.6-76.8h-73.6v192l384 352c0 0 0 0 3.2 3.2 0 0 0 0 3.2 3.2s3.2 6.4 3.2 9.6c0 3.2 0 3.2 0 6.4s0 9.6 0 9.6c-6.4 22.4-9.6 41.6-9.6 64 0 140.8 115.2 256 256 256s256-115.2 256-256-115.2-256-256-256z" />
<glyph unicode="&#xe634;" glyph-name="keyword" d="M393.088 375.264c-12.448-12.608-12.384-32.832 0.128-45.376 6.24-6.176 14.4-9.312 22.56-9.312 8.224 0 16.448 3.2 22.688 9.44l210.944 212.608 149.568-82.624 225.024 217.632-179.488 99.232-92.672 183.136-225.088-217.728 77.952-153.888-211.616-213.12zM788.576 538.912l-91.52 50.592 128.672 124.544 91.584-50.624-128.736-124.512zM734.016 853.6l47.296-93.44-2.752-2.624-126.016-121.952-47.36 93.472 128.832 124.544zM415.776 480.8c17.664 0 32 14.304 32 32.032s-14.304 32.064-32 32.064c-105.824 0-191.904-86.272-191.904-192.256 0-106.016 86.080-192.32 191.904-192.32s191.904 86.24 191.904 192.32c0 17.696-14.272 32-31.968 32-17.728 0-32-14.304-32-32 0-70.752-57.376-128.192-127.936-128.192-70.528 0-127.936 57.44-127.936 128.192 0 70.688 57.408 128.16 127.936 128.16zM799.552 384.672c-17.696 0-32-14.336-32-32.064 0-194.368-157.824-352.544-351.808-352.544s-351.776 158.080-351.776 352.544c0 194.368 157.824 352.544 351.808 352.544 17.664 0 32 14.336 32 32.064 0 17.696-14.304 32.032-32 32.032-229.28-0.032-415.776-186.944-415.776-416.608 0-229.728 186.496-416.64 415.776-416.64s415.776 186.912 415.776 416.64c-0.064 17.664-14.304 32.032-32 32.032z" />
<glyph unicode="&#xe635;" glyph-name="last" d="M512 960c-281.6 0-512-230.4-512-512s230.4-512 512-512 512 230.4 512 512-230.4 512-512 512zM512 0c-246.4 0-448 201.6-448 448s201.6 448 448 448 448-201.6 448-448-201.6-448-448-448zM604.8 633.6c-9.6 9.6-19.2 9.6-32 6.4-12.8-6.4-16-16-16-28.8v-320c0-12.768 3.2-22.368 16-28.768 3.2-3.232 6.4-3.232 12.8-3.232s12.8 3.232 19.232 6.4l182.368 160c6.4 6.4 9.632 16 9.632 25.6s-3.232 16-9.632 22.4l-182.4 160zM316.8 633.6c-9.6 9.6-19.2 9.6-32 6.4-12.8-6.4-16-16-16-28.8v-320c0-12.8 3.2-22.4 16-28.8 6.4-6.4 9.6-6.4 12.8-6.4 6.4 0 12.8 3.2 19.2 6.4l182.4 160c6.4 6.4 9.6 16 9.6 25.6s-3.2 19.2-9.6 25.6l-182.4 160z" />
<glyph unicode="&#xe636;" glyph-name="layout" d="M928 960h-832c-54.4 0-96-41.6-96-96v-832c0-54.4 41.6-96 96-96h832c54.4 0 96 41.6 96 96v832c0 54.4-41.6 96-96 96zM96 896h832c19.2 0 32-12.8 32-32v-160h-896v160c0 19.2 12.8 32 32 32zM64 32v608h192v-640h-160c-19.2 0-32 12.8-32 32zM928 0h-608v640h640v-608c0-19.2-12.8-32-32-32z" />
<glyph unicode="&#xe637;" glyph-name="left-arrow" d="M992 480h-883.2l307.2 307.2c12.8 12.8 12.8 32 0 44.8s-32 12.8-44.8 0l-361.6-361.6c-6.4-6.4-9.6-12.8-9.6-22.4s3.2-16 9.6-22.4l361.6-361.6c6.4-6.4 16-9.6 22.4-9.6s16 3.2 22.4 9.6c12.8 12.8 12.8 32 0 44.8l-307.2 307.2h883.2c19.2 0 32 12.8 32 32s-12.8 32-32 32z" />
<glyph unicode="&#xe638;" glyph-name="list" d="M192 864c0-53.019-42.981-96-96-96s-96 42.981-96 96c0 53.019 42.981 96 96 96s96-42.981 96-96zM320 832h672c17.664 0 32 14.304 32 32s-14.336 32-32 32h-672c-17.664 0-32-14.304-32-32s14.336-32 32-32zM192 32c0-53.019-42.981-96-96-96s-96 42.981-96 96c0 53.019 42.981 96 96 96s96-42.981 96-96zM992 64h-672c-17.664 0-32-14.304-32-32s14.336-32 32-32h672c17.664 0 32 14.304 32 32s-14.336 32-32 32zM192 448c0-53.019-42.981-96-96-96s-96 42.981-96 96c0 53.019 42.981 96 96 96s96-42.981 96-96zM992 480h-672c-17.664 0-32-14.304-32-32s14.336-32 32-32h672c17.664 0 32 14.304 32 32s-14.336 32-32 32z" />
<glyph unicode="&#xe639;" glyph-name="lock" d="M512 384c-54.4 0-96-41.6-96-96 0-41.6 25.6-76.8 64-89.6v-38.4c0-16 16-32 32-32s32 16 32 32v38.4c38.4 12.8 64 48 64 89.6 0 54.4-41.6 96-96 96zM864 576h-32c0 224-144 380.8-320 380.8s-320-156.8-320-380.8h-32c-54.4 0-96-41.6-96-96v-448c0-54.4 41.6-96 96-96h704c54.4 0 96 44.8 96 96v448c0 54.4-41.6 96-96 96zM512 892.8c140.8 0 256-124.8 256-316.8h-512c0 192 115.2 316.8 256 316.8zM896 32c0-19.2-12.8-32-32-32h-704c-19.2 0-32 16-32 32v448c0 19.2 12.8 32 32 32h704c19.2 0 32-12.8 32-32v-448z" />
<glyph unicode="&#xe63a;" glyph-name="mail" d="M960 832h-896c-35.2 0-64-28.8-64-64v-640c0-35.2 28.8-64 64-64h896c35.2 0 64 28.8 64 64v640c0 35.2-28.8 64-64 64zM64 723.2l275.2-275.2-275.2-275.2v550.4zM512 364.8l-403.2 403.2h806.4l-403.2-403.2zM384 403.2l105.6-105.6c6.4-6.4 16-9.6 22.4-9.6s16 3.2 22.4 9.6l105.6 105.6 275.2-275.2h-806.4l275.2 275.2zM684.8 448l275.2 275.2v-550.4l-275.2 275.2z" />
<glyph unicode="&#xe63b;" glyph-name="max" d="M928 960h-832c-54.4 0-96-41.6-96-96v-832c0-54.4 41.6-96 96-96h832c54.4 0 96 41.6 96 96v832c0 54.4-41.6 96-96 96zM960 32c0-19.2-12.8-32-32-32h-832c-19.2 0-32 12.8-32 32v832c0 19.2 12.8 32 32 32h832c19.2 0 32-12.8 32-32v-832z" />
<glyph unicode="&#xe63c;" glyph-name="menu" d="M384 960h-288c-54.4 0-96-41.6-96-96v-288c0-54.4 41.6-96 96-96h352c19.2 0 32 12.8 32 32v352c0 54.4-41.6 96-96 96zM416 544h-320c-19.2 0-32 12.8-32 32v288c0 19.2 12.8 32 32 32h288c19.2 0 32-12.8 32-32v-320zM928 960h-288c-54.4 0-96-41.6-96-96v-352c0-19.2 12.8-32 32-32h352c54.4 0 96 41.6 96 96v288c0 54.4-41.6 96-96 96zM960 576c0-19.2-12.8-32-32-32h-320v320c0 19.2 12.8 32 32 32h288c19.2 0 32-12.8 32-32v-288zM448 416h-352c-54.4 0-96-41.6-96-96v-288c0-54.4 41.6-96 96-96h288c54.4 0 96 41.6 96 96v352c0 19.2-12.8 32-32 32zM416 32c0-19.2-12.8-32-32-32h-288c-19.2 0-32 12.8-32 32v288c0 19.2 12.8 32 32 32h320v-320zM928 416h-352c-19.2 0-32-12.8-32-32v-352c0-54.4 41.6-96 96-96h288c54.4 0 96 41.6 96 96v288c0 54.4-41.6 96-96 96zM960 32c0-19.2-12.8-32-32-32h-288c-19.2 0-32 12.8-32 32v320h320c19.2 0 32-12.8 32-32v-288z" />
<glyph unicode="&#xe63d;" glyph-name="min" d="M992 0h-960c-19.2 0-32-12.8-32-32s12.8-32 32-32h960c19.2 0 32 12.8 32 32s-12.8 32-32 32z" />
<glyph unicode="&#xe63e;" glyph-name="minus" d="M992 480h-960c-19.2 0-32-12.8-32-32s12.8-32 32-32h960c19.2 0 32 12.8 32 32s-12.8 32-32 32z" />
<glyph unicode="&#xe63f;" glyph-name="minus-circle" d="M512 960c-281.6 0-512-230.4-512-512s230.4-512 512-512 512 230.4 512 512-230.4 512-512 512zM512 0c-246.4 0-448 201.6-448 448s201.6 448 448 448 448-201.6 448-448-201.6-448-448-448zM768 480h-512c-19.2 0-32-12.8-32-32s12.8-32 32-32h512c19.2 0 32 12.8 32 32s-12.8 32-32 32z" />
<glyph unicode="&#xe640;" glyph-name="modification" d="M768.904 848.858l141.027-140.908-493.132-493.55-141.027 140.908 493.132 493.55zM226.624 308.736l-26.624-169.376 169.472 26.528zM1004.032 893.536l-46.496 46.528c-26.56 26.592-66.464 26.592-92.96 0l-46.56-46.528 139.52-139.552 46.496 46.528c26.624 26.592 26.624 66.432 0 93.024zM800 480c-17.696 0-32-14.336-32-32v-416c0-17.632-14.336-32-32-32h-640c-17.664 0-32 14.368-32 32v640c0 17.632 14.336 32 32 32h416c17.696 0 32 14.336 32 32s-14.304 32-32 32h-416c-52.928 0-96-43.072-96-96v-640c0-52.928 43.072-96 96-96h640c52.928 0 96 43.072 96 96v416c0 17.664-14.304 32-32 32z" />
<glyph unicode="&#xe641;" glyph-name="new" d="M928 672c0 10.784-5.312 20.32-13.504 26.112l-252.16 252.288c-0.416 0.384-0.832 0.608-1.248 0.96-2.4 2.176-4.992 3.968-7.872 5.312-1.184 0.576-2.368 0.864-3.616 1.28-2.464 0.832-5.024 1.376-7.648 1.568-0.832 0.064-1.504 0.48-2.4 0.48h-447.52c-52.928 0-96.032-43.168-96.032-96.192v-831.744c0-52.928 43.104-96.064 96.032-96.064h639.296c52.928 0 96.672 43.136 96.672 96.064 0 0 0 638.816 0 639.936zM671.552 850.688l146.624-146.688h-146.624v146.688zM831.328 0h-639.296c-17.664 0-32.096 14.368-32.096 32.064v831.744c0.032 17.76 14.432 32.192 32.096 32.192h415.584v-224c0-17.696 14.304-32 31.936-32h223.872v-607.936c0-17.696-14.4-32.064-32.096-32.064z" />
<glyph unicode="&#xe642;" glyph-name="next" d="M512 960c-281.6 0-512-230.4-512-512s230.4-512 512-512 512 230.4 512 512-230.4 512-512 512zM512 0c-246.4 0-448 201.6-448 448s201.6 448 448 448 448-201.6 448-448-201.6-448-448-448zM438.4 697.6c-9.6 9.6-22.4 9.6-35.2 6.4-12.8-6.4-19.2-19.2-19.2-32v-448c0-12.8 6.4-22.4 19.2-28.8 3.2-3.2 9.6-3.2 12.8-3.2 6.4 0 16 3.2 22.4 6.4l256 224c6.4 6.4 9.6 16 9.6 25.6s-3.2 19.2-9.6 25.6l-256 224z" />
<glyph unicode="&#xe643;" glyph-name="notice" d="M582.4 854.4c-28.8 12.8-64 9.6-92.8-6.4l-297.6-208h-128c-35.2 0-64-28.8-64-64v-256c0-35.2 28.8-64 64-64h131.2l12.8-9.6c9.6-6.4 208-153.6 288-201.6 16-9.6 32-16 51.2-16 12.8 0 28.8 3.2 38.4 9.6 28.8 12.8 51.2 41.6 54.4 76.8v0c0 6.4 0 12.8 0 16v630.4c0 6.4 0 12.8 0 16-6.4 35.2-25.6 64-57.6 76.8zM64 576h128v-256h-128v256zM576 124.8c-3.2-12.8-9.6-22.4-19.2-28.8-9.6-3.2-19.2-3.2-28.8 3.2-64 41.6-224 153.6-268.8 188.8v316.8l272 188.8c9.6 6.4 19.2 6.4 28.8 3.2s16-16 19.2-25.6c0-3.2 0-6.4 0-9.6v-627.2c0-3.2-3.2-6.4-3.2-9.6zM777.6 784c-16 6.4-35.2-3.2-41.6-22.4-6.4-16 3.2-35.2 22.4-41.6 121.6-35.2 201.6-144 201.6-272s-80-236.8-201.6-275.2c-16-6.4-25.6-22.4-22.4-41.6 3.2-12.8 16-22.4 32-22.4 3.2 0 6.4 0 9.6 0 147.2 51.2 246.4 185.6 246.4 339.2s-99.2 288-246.4 336zM864 448c0 76.8-44.8 144-115.2 176-16 6.4-35.2 0-41.6-16s0-35.2 16-41.6c48-22.4 76.8-67.2 76.8-118.4s-28.8-96-76.8-118.4c-16-6.4-22.4-25.6-16-41.6 6.4-12.8 16-19.2 28.8-19.2 3.2 0 9.6 0 12.8 3.2 70.4 32 115.2 99.2 115.2 176z" />
<glyph unicode="&#xe644;" glyph-name="notification" d="M512 960c-281.6 0-512-230.4-512-512s230.4-512 512-512 512 230.4 512 512-230.4 512-512 512zM512 0c-246.4 0-448 201.6-448 448s201.6 448 448 448 448-201.6 448-448c0-246.4-201.6-448-448-448zM512 736c-35.2 0-64-28.8-64-64l32-320c0-35.2-3.2-32 32-32s32-3.2 32 32l32 320c0 35.2-28.8 64-64 64zM560 208c0-26.51-21.49-48-48-48s-48 21.49-48 48c0 26.51 21.49 48 48 48s48-21.49 48-48z" />
<glyph unicode="&#xe645;" glyph-name="ok-circle" d="M512 960c-282.304 0-512-229.696-512-512s229.696-512 512-512c282.304 0 512 229.696 512 512s-229.696 512-512 512zM512 0c-247.040 0-448 200.928-448 448 0 247.040 200.96 448 448 448 247.072 0 448-200.992 448-448s-200.928-448-448-448zM822.624 630.624c-12.512 12.512-32.736 12.512-45.248 0l-299.072-299.072-201.504 172.736c-13.376 11.456-33.6 9.92-45.088-3.456-11.52-13.408-9.984-33.632 3.456-45.12l224-192c1.792-1.536 3.904-2.368 5.92-3.456 1.184-0.64 2.208-1.536 3.456-2.016 3.712-1.44 7.584-2.24 11.456-2.24 4.32 0 8.576 0.928 12.576 2.688 1.344 0.576 2.368 1.664 3.616 2.4 2.176 1.344 4.544 2.336 6.432 4.288l320 320c12.512 12.512 12.512 32.736 0 45.248z" />
<glyph unicode="&#xe646;" glyph-name="open" d="M735.904 896h178.72l-425.312-425.376c-12.512-12.512-12.512-32.736 0-45.248 6.24-6.24 14.432-9.376 22.624-9.376s16.384 3.136 22.624 9.376l425.312 425.376v-178.752c0-17.664 14.304-32 32-32 17.664 0 32 14.336 32 32v256c0 4.16-0.8 8.32-2.464 12.224-3.296 7.808-9.472 14.048-17.312 17.312-3.904 1.632-8.064 2.464-12.224 2.464h-255.968c-17.664 0-32-14.336-32-32s14.336-32 32-32zM1023.872 32.576v415.424c0 17.664-14.336 32-32 32-17.696 0-32-14.336-32-32v-416.128c0-17.568-14.304-31.872-31.872-31.872h-831.904c-17.696 0-32.096 14.304-32.096 31.872v832c0 17.664 14.368 32.032 32.032 32.032 0.192 0 0.32 0.096 0.48 0.096h415.424c17.664 0 32 14.336 32 32s-14.336 32-32 32h-415.84c-52.992 0-96.096-43.136-96.096-96.128v-832c0-52.864 43.104-95.872 96.096-95.872h831.904c52.928 0 96 43.072 96 95.936 0 0.224-0.128 0.416-0.128 0.64z" />
<glyph unicode="&#xe647;" glyph-name="paper" d="M928 672c0 10.784-5.312 20.32-13.504 26.112l-252.16 252.288c-0.416 0.384-0.832 0.608-1.248 0.96-2.4 2.176-4.992 3.968-7.904 5.312-1.152 0.576-2.336 0.864-3.584 1.28-2.464 0.832-5.024 1.376-7.648 1.568-0.832 0.064-1.504 0.48-2.4 0.48h-447.52c-52.928 0-96.032-43.168-96.032-96.192v-831.744c0-52.928 43.104-96.064 96.032-96.064h639.296c52.928 0 96.672 43.136 96.672 96.064 0 0 0 638.816 0 639.936zM671.552 850.688l146.624-146.688h-146.624v146.688zM831.328 0h-639.296c-17.664 0-32.096 14.368-32.096 32.064v831.744c0.032 17.76 14.432 32.192 32.096 32.192h415.584v-224c0-17.696 14.304-32 31.936-32h223.872v-607.936c0-17.696-14.4-32.064-32.096-32.064zM735.488 384h-447.616c-17.632 0-32-14.304-32-32s14.336-32 32-32h447.68c17.632 0 31.936 14.304 31.936 32s-14.336 32-32 32zM735.488 224h-447.616c-17.632 0-32-14.304-32-32s14.336-32 32-32h447.68c17.632 0 31.936 14.304 31.936 32s-14.336 32-32 32zM735.488 544h-447.616c-17.632 0-32-14.304-32-32s14.336-32 32-32h447.68c17.632 0 31.936 14.304 31.936 32s-14.336 32-32 32z" />
<glyph unicode="&#xe648;" glyph-name="pause" d="M512 960c-281.6 0-512-230.4-512-512s230.4-512 512-512 512 230.4 512 512-230.4 512-512 512zM512 0c-246.4 0-448 201.6-448 448s201.6 448 448 448 448-201.6 448-448-201.6-448-448-448zM416 736c-19.2 0-32-12.8-32-32v-512c0-19.2 12.8-32 32-32s32 12.8 32 32v512c0 19.2-12.8 32-32 32zM608 736c-19.2 0-32-12.8-32-32v-512c0-19.2 12.8-32 32-32s32 12.8 32 32v512c0 19.2-12.8 32-32 32z" />
<glyph unicode="&#xe649;" glyph-name="plus" d="M992 480h-448v448c0 17.664-14.336 32-32 32s-32-14.336-32-32v-448h-448c-17.664 0-32-14.336-32-32s14.336-32 32-32h448v-448c0-17.664 14.336-32 32-32s32 14.336 32 32v448h448c17.664 0 32 14.336 32 32s-14.336 32-32 32z" />
<glyph unicode="&#xe64a;" glyph-name="plus-circle" d="M512 960c-282.784 0-512-229.216-512-512s229.216-512 512-512 512 229.216 512 512-229.216 512-512 512zM512 0c-247.040 0-448 200.928-448 448 0 247.040 200.96 448 448 448 247.072 0 448-200.96 448-448 0-247.072-200.928-448-448-448zM768 480h-224v224c0 17.664-14.336 32-32 32s-32-14.336-32-32v-224h-224c-17.664 0-32-14.336-32-32s14.336-32 32-32h224v-224c0-17.664 14.336-32 32-32s32 14.336 32 32v224h224c17.664 0 32 14.336 32 32s-14.336 32-32 32z" />
<glyph unicode="&#xe64b;" glyph-name="power" d="M787.52 737.28c-13.984 10.912-34.048 8.416-44.896-5.504-10.88-13.952-8.416-34.048 5.536-44.928 93.952-73.408 147.84-183.776 147.84-302.848 0-211.744-172.256-384-384-384s-384 172.256-384 384c0 118.976 53.856 229.344 147.712 302.72 13.92 10.88 16.384 30.976 5.504 44.896-10.88 13.952-31.040 16.352-44.896 5.504-109.536-85.6-172.32-214.304-172.32-353.12 0-247.040 200.96-448 448-448s448 200.96 448 448c0 138.912-62.88 267.68-172.48 353.28zM512 416c17.664 0 32 14.336 32 32v480c0 17.664-14.336 32-32 32s-32-14.336-32-32v-480c0-17.664 14.336-32 32-32z" />
<glyph unicode="&#xe64c;" glyph-name="prev" d="M512 960c-281.6 0-512-230.4-512-512s230.4-512 512-512 512 230.4 512 512-230.4 512-512 512zM512 0c-246.4 0-448 201.6-448 448s201.6 448 448 448 448-201.6 448-448-201.6-448-448-448zM620.8 700.8c-12.8 6.4-25.6 3.2-35.2-6.4l-256-224c-6.4-3.2-9.6-12.8-9.6-22.4s3.2-19.2 9.6-25.6l256-224c6.4-6.4 12.8-6.4 22.4-6.4 3.2 0 9.6 0 12.8 3.2 12.8 6.4 19.2 16 19.2 28.8v448c0 12.8-6.4 25.6-19.2 28.8z" />
<glyph unicode="&#xe64d;" glyph-name="printer" d="M928.288 480h-128.288v384.128c0 52.864-42.944 95.872-95.712 95.872h-384c-53.088 0-96.288-43.008-96.288-95.872v-384.128h-127.712c-54.24 0-96.288-60.064-96.288-111.776v-275.328c0-52.16 42.272-92.896 96.288-92.896h165.632c13.248-37.184 48.448-64 90.080-64h320c41.664 0 76.8 26.816 90.048 64h166.176c53.792 0 95.776 40.736 95.776 92.864v275.328c0 52.8-40.928 111.808-95.712 111.808zM288 864.128c0 17.568 14.464 31.872 32.288 31.872h384c17.76 0 31.712-14.016 31.712-31.872v-384.128h-448v384.128zM672 0h-320c-17.664 0-32 14.368-32 32s14.336 32 32 32h320c17.664 0 32-14.368 32-32s-14.336-32-32-32zM960 92.864c0-18.912-15.968-28.864-31.712-28.864h-166.144c-13.248 37.184-48.48 64-90.080 64h-320.064c-41.664 0-76.832-26.816-90.080-64h-165.632c-16.032 0-32.288 9.952-32.288 28.864v275.328c0 21.024 18.080 47.808 32.288 47.808h832c13.888 0 31.712-26.784 31.712-47.776v-275.36z" />
<glyph unicode="&#xe64e;" glyph-name="question" d="M512 960c-281.6 0-512-230.4-512-512s230.4-512 512-512 512 230.4 512 512-230.4 512-512 512zM512 0c-246.4 0-448 201.6-448 448s201.6 448 448 448 448-201.6 448-448-201.6-448-448-448zM512 736c-73.6 0-128-32-156.8-96-6.4-16 0-35.2 16-41.6s35.2 0 41.6 16c19.2 38.4 51.2 57.6 99.2 57.6 54.4 0 96-44.8 96-105.6 0-54.4-28.8-76.8-60.8-105.6-32-25.6-67.2-54.4-67.2-108.8v-32c0-19.2 12.8-32 32-32s32 12.8 32 32v32c0 22.4 16 35.2 44.8 60.8 35.2 28.8 83.2 70.4 83.2 153.6 0 96-70.4 169.6-160 169.6zM560 176c0-26.51-21.49-48-48-48s-48 21.49-48 48c0 26.51 21.49 48 48 48s48-21.49 48-48z" />
<glyph unicode="&#xe64f;" glyph-name="radio-checked" d="M512 960c-282.304 0-512-229.696-512-512s229.696-512 512-512c282.304 0 512 229.696 512 512s-229.696 512-512 512zM512 0c-247.040 0-448 200.928-448 448 0 247.040 200.96 448 448 448 247.072 0 448-200.96 448-448 0-247.072-200.928-448-448-448zM704 448c0-106.039-85.961-192-192-192s-192 85.961-192 192c0 106.039 85.961 192 192 192s192-85.961 192-192z" />
<glyph unicode="&#xe650;" glyph-name="radio-unchecked" d="M512 960c-282.304 0-512-229.696-512-512 0-282.272 229.696-512 512-512s512 229.728 512 512c0 282.304-229.696 512-512 512zM512 0c-247.040 0-448 200.992-448 448 0 247.072 200.96 448 448 448 247.072 0 448-200.928 448-448 0-247.008-200.928-448-448-448z" />
<glyph unicode="&#xe651;" glyph-name="reading" d="M1007.84 702.496c-7.104 4.032-188.096 98.88-337.856 98.88-66.272 0-119.264-18.592-158.432-54.72-39.2 36.128-92.128 54.72-158.432 54.72-149.728 0-329.92-94.848-336.992-98.88l-16.128-9.216v-598.656c0 0 140.96 49.408 510.496 49.408s513.504-49.408 513.504-49.408v598.656l-16.16 9.216zM64 655.488c43.904 22.624 181.312 81.888 289.152 81.888 56.768 0 98.080-16.064 126.016-48.864l0.064-477.376c-35.84 9.696-91.328 20.448-161.184 20.448-79.296 0-170.272-13.824-249.216-40.832h-4.832v464.736zM955.2 190.688c-79.008 27.072-170.752 40.864-250.016 40.864-69.792 0-125.248-10.752-161.12-20.448v477.408c27.936 32.8 69.248 48.864 126.016 48.864 107.808 0 246.016-59.264 289.984-81.888v-464.8h-4.864z" />
<glyph unicode="&#xe652;" glyph-name="refresh" d="M608 32c-229.76 0-416 186.24-416 416h-0.128c0 0.416 0.128 0.768 0.128 1.184 0 53.024-42.976 96-96 96-52.64 0-95.232-42.368-95.872-94.816 0-0.384-0.128-0.768-0.128-1.184 0-0.128 0.032-0.256 0.032-0.384 0-0.288 0.096-0.544 0.096-0.8h-0.128c0-282.784 229.216-512 512-512 282.016 0 510.592 227.968 511.872 509.632-1.28-228.704-186.944-413.632-415.872-413.632zM1023.872 448h0.128c0 282.784-229.216 512-512 512-281.984 0-510.592-227.968-511.872-509.632 1.28 228.672 186.944 413.632 415.872 413.632 229.76 0 416-186.24 416-416h0.128c0-0.416-0.128-0.768-0.128-1.184 0-52.992 42.976-96 96-96 52.64 0 95.264 42.368 95.872 94.816 0 0.416 0.128 0.768 0.128 1.184 0 0.128-0.032 0.256-0.032 0.384 0 0.288-0.096 0.544-0.096 0.8z" />
<glyph unicode="&#xe653;" glyph-name="reload" d="M1005.824 771.232c-16.128 7.616-35.072 0.832-42.624-15.136l-49.856-104.896c-78.112 166.848-248.416 276.8-434.144 276.8-264.224 0-479.2-215.328-479.2-480s214.976-480 479.2-480c170.56 0 329.536 91.968 415.072 239.968 8.8 15.296 3.552 34.88-11.648 43.744-15.328 8.896-34.88 3.584-43.584-11.68-74.208-128.32-212.032-208.032-359.84-208.032-228.992 0-415.296 186.624-415.296 416s186.304 416 415.296 416c163.744 0 313.44-98.72 379.52-247.552l-123.232 58.848c-16.096 7.616-35.040 0.8-42.624-15.136-7.552-15.968-0.8-35.040 15.136-42.656l182.56-87.2c4.512-2.112 9.12-3.104 13.728-3.104 3.264 0 6.336 0.576 9.376 1.472 8.608 2.4 16.16 8.352 20.256 17.024l87.008 182.816c7.52 16 0.8 35.104-15.104 42.72z" />
<glyph unicode="&#xe654;" glyph-name="restore" d="M60.8 585.6l326.4-172.8c35.2-19.2 80-28.8 124.8-28.8s89.6 9.6 124.8 28.8l326.4 172.8c38.4 22.4 60.8 51.2 60.8 86.4s-22.4 64-60.8 86.4l-326.4 172.8c-70.4 38.4-179.2 38.4-246.4 0l-329.6-172.8c-38.4-22.4-60.8-51.2-60.8-86.4s22.4-64 60.8-86.4zM92.8 700.8l326.4 172.8c25.6 16 57.6 22.4 92.8 22.4s67.2-6.4 92.8-19.2l326.4-172.8c19.2-12.8 28.8-22.4 28.8-32s-9.6-19.2-28.8-28.8l-326.4-172.8c-51.2-25.6-137.6-25.6-188.8 0l-323.2 172.8c-19.2 9.6-28.8 19.2-28.8 28.8s9.6 19.2 28.8 28.8zM963.2 534.4c-16 9.6-35.2 3.2-44.8-12.8s-3.2-35.2 12.8-44.8c16-9.6 28.8-19.2 28.8-28.8s-9.6-19.2-28.8-28.8l-326.4-172.8c-51.2-25.6-137.6-25.6-188.8 0l-323.2 172.8c-19.2 9.6-28.8 19.2-28.8 28.8s9.6 19.2 28.8 28.8c16 9.6 22.4 28.8 12.8 44.8s-28.8 22.4-44.8 12.8c-38.4-22.4-60.8-51.2-60.8-86.4s22.4-64 60.8-86.4l326.4-172.8c35.2-19.2 80-28.8 124.8-28.8s89.6 9.6 124.8 28.8l326.4 172.8c38.4 22.4 60.8 51.2 60.8 86.4s-22.4 64-60.8 86.4zM963.2 310.4c-16 9.6-35.2 3.2-44.8-12.8s-3.2-35.2 12.8-44.8c16-9.6 28.8-19.2 28.8-28.8s-9.6-19.2-28.8-28.8l-326.4-172.8c-51.2-25.6-137.6-25.6-188.8 0l-323.2 172.8c-19.2 9.6-28.8 19.2-28.8 28.8s9.6 19.2 28.8 28.8c16 9.6 22.4 28.8 12.8 44.8s-28.8 22.4-44.8 12.8c-38.4-22.4-60.8-51.2-60.8-86.4s22.4-64 60.8-86.4l326.4-172.8c35.2-19.2 80-28.8 124.8-28.8s89.6 9.6 124.8 28.8l326.4 172.8c38.4 22.4 60.8 51.2 60.8 86.4s-22.4 64-60.8 86.4z" />
<glyph unicode="&#xe655;" glyph-name="rewind" d="M492.8 448l457.6 457.6c12.8 12.8 12.8 32 0 44.8s-32 12.8-44.8 0l-480-480c-6.4-6.4-9.6-16-9.6-22.4 0-9.6 3.2-16 9.6-22.4l480-480c6.4-6.4 16-9.6 22.4-9.6s16 3.2 22.4 9.6c12.8 12.8 12.8 32 0 44.8l-457.6 457.6zM140.8 448l457.6 457.6c12.8 12.8 12.8 32 0 44.8s-32 12.8-44.8 0l-480-480c-6.4-6.4-9.6-16-9.6-22.4 0-9.6 3.2-16 9.6-22.4l480-480c6.4-6.4 16-9.6 22.4-9.6s16 3.2 22.4 9.6c12.8 12.8 12.8 32 0 44.8l-457.6 457.6z" />
<glyph unicode="&#xe656;" glyph-name="right-arrow" d="M1024 448c0 9.6-3.2 19.2-12.8 22.4l-358.4 361.6c-12.8 12.8-32 12.8-44.8 0s-12.8-32 0-44.8l307.2-307.2h-883.2c-19.2 0-32-12.8-32-32s12.8-32 32-32h883.2l-307.2-307.2c-12.8-12.8-12.8-32 0-44.8 6.4-6.4 16-9.6 22.4-9.6s16 3.2 22.4 9.6l361.6 361.6c3.2 3.2 6.4 6.4 6.4 9.6 3.2 3.2 3.2 9.6 3.2 12.8z" />
<glyph unicode="&#xe657;" glyph-name="save" d="M928 640h-32v96c0 54.4-41.6 96-96 96h-416v32c0 54.4-41.6 96-96 96h-192c-54.4 0-96-41.6-96-96v-832c0-54.4 41.6-96 96-96h704c44.8 0 76.8 28.8 96 89.6l128 512v6.4c0 44.8-38.4 96-96 96zM96 896h192c19.2 0 32-12.8 32-32v-96h480c19.2 0 32-12.8 32-32v-96h-608c-48 0-83.2-35.2-96-89.6l-64-259.2v572.8c0 19.2 12.8 32 32 32zM832 41.6c-12.8-41.6-25.6-41.6-32-41.6h-704c-3.2 0-9.6 0-12.8 3.2 0 0-3.2 0-3.2 3.2-3.2 0-3.2 3.2-6.4 3.2 0 0-3.2 3.2-3.2 3.2 0 3.2-3.2 3.2-3.2 6.4 0 0 0 3.2 0 3.2 0 3.2 0 3.2 0 6.4l128 508.8c-3.2 9.6 6.4 38.4 28.8 38.4h704c19.2 0 28.8-19.2 32-28.8l-128-505.6z" />
<glyph unicode="&#xe658;" glyph-name="search" d="M1014.624-9.376l-255.712 255.776c65.312 75.648 105.088 173.984 105.088 281.6 0 238.176-193.824 432-432 432-238.208 0-432-193.824-432-432s193.792-432 432-432c107.616 0 205.952 39.808 281.664 105.152l255.712-255.776c6.24-6.24 14.432-9.376 22.624-9.376s16.384 3.136 22.624 9.376c12.512 12.512 12.512 32.736 0 45.248zM64 528c0 202.912 165.088 368 368 368s368-165.088 368-368-165.088-368-368-368-368 165.088-368 368z" />
<glyph unicode="&#xe659;" glyph-name="send" d="M1014.784 695.168l-249.312 246.752c-0.448 0.416-17.12 18.080-29.472 18.080-17.632 0-32-14.176-32-31.68v-160.416h-215.008c0 0-234.528 14.592-232.992-305.696 0-160.768 148.352-334.208 148.352-334.208s-156.096 444.448 161.6 444.448c56.672 0 101.728 0.192 138.048 0.48v-157.248c0-17.504 14.368-31.68 32-31.68 12.352 0 29.024 17.664 29.472 18.048l249.312 246.752c6.368 6.4 9.408 14.784 9.216 23.136 0 0 0 0.032 0 0.064s0 0.032 0 0.064c0.192 8.352-2.848 16.736-9.216 23.104zM864 384c-17.696 0-32-14.336-32-32v-320c0-17.632-14.336-32-32-32h-704c-17.632 0-32 14.368-32 32v704c0 17.632 14.368 32 32 32h224c17.664 0 32 14.336 32 32s-14.336 32-32 32h-224c-52.928 0-96-43.072-96-96v-704c0-52.928 43.072-96 96-96h704c52.928 0 96 43.072 96 96v320c0 17.664-14.304 32-32 32z" />
<glyph unicode="&#xe65a;" glyph-name="setting" d="M512 640c-105.6 0-192-86.4-192-192s86.4-192 192-192 192 86.4 192 192-86.4 192-192 192zM512 320c-70.4 0-128 57.6-128 128s57.6 128 128 128 128-57.6 128-128-57.6-128-128-128zM998.4 544l-124.8 28.8c-6.4 16-9.6 28.8-19.2 44.8l67.2 108.8c6.4 12.8 6.4 28.8-3.2 38.4l-89.6 89.6c-9.6 9.6-25.6 12.8-38.4 3.2l-108.8-67.2c-12.8 6.4-28.8 12.8-44.8 19.2l-28.8 124.8c-3.2 16-16 25.6-32 25.6h-128c-16 0-28.8-9.6-32-25.6l-28.8-124.8c-16-6.4-28.8-9.6-44.8-19.2l-108.8 70.4c-12.8 6.4-28.8 3.2-38.4-6.4l-89.6-89.6c-9.6-9.6-12.8-25.6-6.4-38.4l67.2-108.8c-6.4-12.8-12.8-28.8-19.2-44.8l-121.6-28.8c-16-3.2-25.6-16-25.6-32v-128c0-16 9.6-28.8 25.6-32l124.8-28.8c6.4-16 9.6-28.8 19.2-44.8l-67.2-108.8c-6.4-12.8-6.4-28.8 3.2-38.4l89.6-89.6c9.6-9.6 25.6-12.8 38.4-3.2l108.8 67.2c16-6.4 28.8-12.8 44.8-19.2l28.8-124.8c3.2-16 16-25.6 32-25.6h128c16 0 28.8 9.6 32 25.6l28.8 124.8c16 6.4 28.8 9.6 44.8 19.2l108.8-67.2c12.8-6.4 28.8-6.4 38.4 3.2l89.6 89.6c9.6 9.6 12.8 25.6 3.2 38.4l-67.2 108.8c6.4 12.8 12.8 28.8 19.2 44.8l124.8 28.8c16 3.2 25.6 16 25.6 32v128c0 16-9.6 28.8-25.6 32zM841.6 380.8c-12.8-3.2-19.2-12.8-22.4-22.4-6.4-22.4-16-44.8-25.6-64-6.4-9.6-6.4-22.4 0-32l64-102.4-54.4-54.4-102.4 64c-9.6 6.4-22.4 6.4-32 0-19.2-9.6-41.6-19.2-67.2-25.6-12.8-3.2-19.2-12.8-22.4-22.4l-28.8-121.6h-76.8l-28.8 118.4c-3.2 12.8-12.8 19.2-22.4 22.4-22.4 6.4-44.8 16-64 28.8-9.6 6.4-22.4 6.4-32 0l-102.4-64-54.4 54.4 64 102.4c6.4 9.6 6.4 22.4 0 32-9.6 19.2-19.2 41.6-25.6 67.2-3.2 12.8-12.8 19.2-22.4 22.4l-121.6 25.6v76.8l118.4 28.8c12.8 3.2 22.4 12.8 22.4 22.4 3.2 19.2 12.8 38.4 25.6 64 6.4 9.6 6.4 22.4 0 32l-64 102.4 54.4 54.4 102.4-64c9.6-6.4 22.4-6.4 32 0 22.4 12.8 41.6 19.2 64 25.6 9.6 3.2 19.2 12.8 22.4 22.4l32 121.6h76.8l25.6-118.4c3.2-12.8 9.6-19.2 22.4-22.4 25.6-6.4 44.8-16 67.2-25.6 9.6-6.4 22.4-6.4 32 0l102.4 64 54.4-54.4-64-102.4c-6.4-9.6-6.4-22.4 0-32 12.8-22.4 19.2-41.6 25.6-64 3.2-9.6 12.8-19.2 22.4-22.4l118.4-28.8v-80l-115.2-28.8z" />
<glyph unicode="&#xe65b;" glyph-name="skip-back" d="M160 960c19.2 0 32-12.8 32-32v-960c0-19.2-12.8-32-32-32s-32 12.8-32 32v960c0 19.2 12.8 32 32 32zM841.6 950.4c12.8 12.8 32 12.8 44.8 0s12.8-32 0-44.8l-457.6-457.6 457.6-457.6c12.8-12.8 12.8-32 0-44.8-6.4-6.4-12.8-9.6-22.4-9.6s-16 3.2-22.4 9.6l-480 480c-12.8 12.8-12.8 32 0 44.8l480 480z" />
<glyph unicode="&#xe65c;" glyph-name="skip-forward" d="M864 960c-19.2 0-32-12.8-32-32v-960c0-19.2 12.8-32 32-32s32 12.8 32 32v960c0 19.2-12.8 32-32 32zM182.4 950.4c-12.8 12.8-32 12.8-44.8 0s-12.8-32 0-44.8l457.6-457.6-457.6-457.6c-12.8-12.8-12.8-32 0-44.8 6.4-6.4 16-9.6 22.4-9.6s16 3.2 22.4 9.6l480 480c12.8 12.8 12.8 32 0 44.8l-480 480z" />
<glyph unicode="&#xe65d;" glyph-name="stats" d="M992 32h-960c-19.2 0-32-12.8-32-32s12.8-32 32-32h960c19.2 0 32 12.8 32 32s-12.8 32-32 32zM64 96c35.2 0 64 28.8 64 64 0 9.6-3.2 16-6.4 25.6l220.8 294.4c3.2 0 6.4 0 6.4 0 6.4 0 16 0 22.4 3.2l140.8-121.6c0-3.2 0-6.4 0-12.8 0-35.2 28.8-64 64-64s64 28.8 64 64c0 9.6-3.2 16-6.4 25.6l320 425.6c3.2 0 6.4 0 6.4 0 35.2 0 64 28.8 64 64s-28.8 64-64 64-64-28.8-64-64c0-9.6 3.2-16 6.4-25.6l-320-422.4c-3.2 0-6.4 0-6.4 0-6.4 0-16 0-22.4-3.2l-137.6 118.4c0 3.2 0 6.4 0 12.8 0 35.2-28.8 64-64 64s-64-28.8-64-64c0-9.6 3.2-16 6.4-25.6l-224-294.4c-3.2 0-6.4 0-6.4 0-35.2 0-64-28.8-64-64s28.8-64 64-64z" />
<glyph unicode="&#xe65e;" glyph-name="stop" d="M512 960c-282.304 0-512-229.696-512-512s229.696-512 512-512c282.304 0 512 229.696 512 512s-229.696 512-512 512zM512 0c-247.040 0-448 200.928-448 448 0 247.040 200.96 448 448 448 247.072 0 448-200.96 448-448 0-247.072-200.928-448-448-448zM320 640h384v-384h-384v384z" />
<glyph unicode="&#xe65f;" glyph-name="storage" d="M716.928 960h-619.68c-52.704 0-97.248-44.384-97.248-96.928v-832c0-52.416 43.616-95.072 97.248-95.072h832c53.12 0 94.752 41.76 94.752 95.072v619.52l-307.072 309.408zM384 896h192v-234.144c0-18.048-17.12-21.856-31.424-21.856h-160.576v256zM224 0v252c0 18.496 16.16 36 33.248 36h512c16.384 0 30.752-16.8 30.752-36v-252h-576zM960 31.072c0-17.728-13.216-31.072-30.752-31.072h-65.248v252c0 54.176-43.36 100-94.752 100h-512c-52.704 0-97.248-45.824-97.248-100v-252h-62.752c-18.336 0-33.248 13.952-33.248 31.072v832c0 17.536 15.52 32.928 33.248 32.928h30.752v-234.144c0-50.528 39.712-85.856 96.544-85.856h320c56.192 0 95.456 35.328 95.456 85.856v234.144h50.24l269.76-271.776v-593.152z" />
<glyph unicode="&#xe660;" glyph-name="switch" d="M1014.4 566.4l-384 384c-12.8 12.8-32 12.8-44.8 0s-12.8-32 0-44.8l329.6-329.6h-723.2c-19.2 0-32-12.8-32-32s12.8-32 32-32c0 0 800 0 800 0 9.6 0 16 3.2 22.4 9.6 12.8 12.8 12.8 32 0 44.8zM832 384c0 0-800 0-800 0-9.6 0-16-3.2-22.4-9.6-12.8-12.8-12.8-32 0-44.8l384-384c12.8-12.8 32-12.8 44.8 0s12.8 32 0 44.8l-329.6 329.6h723.2c19.2 0 32 12.8 32 32s-12.8 32-32 32z" />
<glyph unicode="&#xe661;" glyph-name="table" d="M928 960h-832c-54.4 0-96-41.6-96-96v-832c0-54.4 41.6-96 96-96h832c54.4 0 96 41.6 96 96v832c0 54.4-41.6 96-96 96zM192 0h-96c-19.2 0-32 12.8-32 32v96h128v-128zM192 192h-128v128h128v-128zM192 384h-128v128h128v-128zM192 576h-128v128h128v-128zM384 0h-128v128h128v-128zM384 192h-128v128h128v-128zM384 384h-128v128h128v-128zM384 576h-128v128h128v-128zM576 0h-128v128h128v-128zM576 192h-128v128h128v-128zM576 384h-128v128h128v-128zM576 576h-128v128h128v-128zM768 0h-128v128h128v-128zM768 192h-128v128h128v-128zM768 384h-128v128h128v-128zM768 576h-128v128h128v-128zM960 32c0-19.2-12.8-32-32-32h-96v128h128v-96zM960 192h-128v128h128v-128zM960 384h-128v128h128v-128zM960 576h-128v128h128v-128z" />
<glyph unicode="&#xe662;" glyph-name="tree" d="M800 128c-41.6 0-76.8-25.6-89.6-64h-422.4c-19.2 0-32 12.8-32 32v326.4c0-3.2 22.4-6.4 32-6.4h422.4c12.8-38.4 48-64 89.6-64 54.4 0 96 41.6 96 96s-41.6 96-96 96c-41.6 0-76.8-25.6-89.6-64h-422.4c-19.2 0-32 12.8-32 32v262.4c32 12.8 64 48 64 89.6 0 54.4-41.6 96-96 96-51.2 0-96-41.6-96-96 0-41.6 32-76.8 64-89.6v-678.4c0-54.4 44.8-96 96-96h422.4c12.8-38.4 48-64 89.6-64 54.4 0 96 41.6 96 96s-41.6 96-96 96zM800 512c35.2 0 64-28.8 64-64s-28.8-64-64-64c-35.2 0-64 28.8-64 64s28.8 64 64 64zM160 864c0 35.2 28.8 64 64 64s64-28.8 64-64-28.8-64-64-64c-35.2 0-64 28.8-64 64zM800-32c-35.2 0-64 28.8-64 64s28.8 64 64 64c35.2 0 64-28.8 64-64s-28.8-64-64-64z" />
<glyph unicode="&#xe663;" glyph-name="unlock" d="M512 387.2c-54.4 0-96-41.6-96-96 0-41.6 25.6-76.768 64-89.6v-41.6c0-16 16-32 32-32s32 16 32 32v38.4c38.4 12.768 64 48 64 89.6 0 54.4-41.6 99.2-96 99.2zM864 576h-608c0 192 115.2 316.8 256 316.8 96 0 183.936-67.104 228.736-166.304 0 0 9.824-28.352 37.76-21.504 26.496 6.496 24.704 31.008 24.704 31.008-51.2 134.4-163.2 220.8-291.2 220.8-176 0-320-156.8-320-380.8h-32c-54.4 0-96-41.6-96-92.8v-448c0-54.4 41.6-99.2 96-99.2h704c54.4 0 96 44.8 96 99.2v448c0 51.2-41.6 92.8-96 92.8zM896 35.2c0-19.2-12.8-35.2-32-35.2h-704c-19.2 0-32 16-32 35.2v448c0 16 12.8 28.8 32 28.8h704c19.2 0 32-12.8 32-28.8v-448z" />
<glyph unicode="&#xe664;" glyph-name="upload" d="M617.376 393.376c6.24-6.24 14.432-9.376 22.624-9.376s16.384 3.136 22.624 9.376c12.512 12.512 12.512 32.736 0 45.248l-128 128c-2.944 2.944-6.496 5.312-10.4 6.912-7.84 3.232-16.64 3.232-24.48 0-3.904-1.632-7.456-3.968-10.4-6.912l-128-128c-12.512-12.512-12.512-32.736 0-45.248 6.272-6.24 14.464-9.376 22.656-9.376s16.384 3.136 22.624 9.376l73.376 73.376v-498.752c0-17.664 14.336-32 32-32s32 14.336 32 32v498.752l73.376-73.376zM864 960h-704c-52.928 0-96-43.072-96-96v-640c0-52.928 43.072-96 96-96h224c17.664 0 32 14.336 32 32s-14.336 32-32 32h-224c-17.632 0-32 14.368-32 32v640c0 17.632 14.368 32 32 32h704c17.632 0 32-14.368 32-32v-640c0-17.632-14.368-32-32-32h-224c-17.664 0-32-14.336-32-32s14.336-32 32-32h224c52.928 0 96 43.072 96 96v640c0 52.928-43.072 96-96 96z" />
<glyph unicode="&#xe665;" glyph-name="user" d="M614.4 470.4c89.6 38.4 153.6 128 153.6 233.6 0 140.8-115.2 256-256 256s-256-115.2-256-256c0-105.6 64-195.2 153.6-233.6-233.6-48-409.6-256-409.6-502.4 0-19.2 12.8-32 32-32s32 12.8 32 32c0 246.4 201.6 448 448 448s448-201.6 448-448c0-19.2 12.8-32 32-32s32 12.8 32 32c0 246.4-176 454.4-409.6 502.4zM320 704c0 105.6 86.4 192 192 192s192-86.4 192-192-86.4-192-192-192-192 86.4-192 192z" />
<glyph unicode="&#xe666;" glyph-name="users" d="M288 512c0 3.2 0 6.4 0 6.4 0 3.2 0 6.4 0 6.4 0 19.2-12.8 32-32 32-38.4 0-73.6 32-73.6 73.6s35.2 73.6 73.6 73.6c19.2 0 32 12.8 32 32s-12.8 32-32 32c-76.8 0-137.6-60.8-137.6-137.6 0-41.6 19.2-76.8 48-102.4-96-35.2-166.4-131.2-166.4-240 0-19.2 12.8-32 32-32s32 12.8 32 32c0 105.6 86.4 192 192 192 19.2 0 32 12.8 32 32zM857.6 528c28.8 25.6 48 60.8 48 102.4 0 76.8-60.8 137.6-137.6 137.6-19.2 0-32-12.8-32-32s12.8-32 32-32c38.4 0 73.6-32 73.6-73.6s-32-73.6-73.6-73.6c-19.2 0-32-12.8-32-32 0-3.2 0-6.4 0-6.4 0-3.2 0-6.4 0-6.4 0-19.2 12.8-32 32-32 105.6 0 192-86.4 192-192 0-19.2 12.8-32 32-32s32 12.8 32 32c0 108.8-70.4 204.8-166.4 240zM611.2 467.2c57.6 35.2 96 96 96 169.6 0 105.6-86.4 195.2-195.2 195.2s-195.2-89.6-195.2-195.2c0-73.6 38.4-134.4 96-169.6-163.2-44.8-284.8-195.2-284.8-371.2 0-19.2 12.8-32 32-32s32 12.8 32 32c0 176 144 320 320 320s320-144 320-320c0-19.2 12.8-32 32-32s32 12.8 32 32c0 176-121.6 326.4-284.8 371.2zM512 502.4c-73.6 0-131.2 60.8-131.2 131.2s57.6 134.4 131.2 134.4 131.2-60.8 131.2-131.2-57.6-134.4-131.2-134.4z" />
<glyph unicode="&#xe667;" glyph-name="zhome" d="M1014.4 502.4l-150.4 134.4v208c0 19.2-12.8 32-32 32h-128c-19.2 0-32-12.8-32-32v-22.4l-137.6 128c-12.8 12.8-32 12.8-44.8 0l-480-448c-12.8-12.8-12.8-32 0-44.8 6.4-6.4 12.8-9.6 22.4-9.6h128v-480c0-19.2 12.8-32 32-32h224c19.2 0 32 12.8 32 32v192h128v-192c0-19.2 12.8-32 32-32h224c19.2 0 32 12.8 32 32v480h128c9.6 0 16 3.2 22.4 9.6 12.8 12.8 12.8 35.2 0 44.8zM832 512c-19.2 0-32-12.8-32-32v-480h-160v192c0 19.2-12.8 32-32 32h-192c-19.2 0-32-12.8-32-32v-192h-160v480c0 19.2-12.8 32-32 32h-80l400 368 169.6-156.8c12.8-12.8 32-9.6 44.8 3.2 6.4 9.6 9.6 16 9.6 22.4v0 64h64v-192c0-9.6 3.2-16 9.6-22.4l99.2-86.4h-76.8z" />
<glyph unicode="&#xe668;" glyph-name="zoom-in" d="M544 608h-128v128c0 19.2-12.8 32-32 32s-32-12.8-32-32v-128h-128c-19.2 0-32-12.8-32-32s12.8-32 32-32h128v-128c0-19.2 12.8-32 32-32s32 12.8 32 32v128h128c19.2 0 32 12.8 32 32s-12.8 32-32 32zM1014.4-6.4l-336 339.2c57.6 67.2 89.6 150.4 89.6 243.2 0 211.2-172.8 384-384 384s-384-172.8-384-384 172.8-384 384-384c92.8 0 179.2 35.2 246.4 89.6l339.2-339.2c6.4-6.4 16-9.6 22.4-9.6s16 3.2 22.4 9.6c12.8 19.2 12.8 38.4 0 51.2zM64 576c0 176 144 320 320 320s320-144 320-320-144-320-320-320-320 147.2-320 320z" />
<glyph unicode="&#xe669;" glyph-name="zoom-out" d="M544 608h-320c-19.2 0-32-12.8-32-32s12.8-32 32-32h320c19.2 0 32 12.8 32 32s-12.8 32-32 32zM1014.4-6.4l-336 339.2c57.6 67.2 89.6 150.4 89.6 243.2 0 211.2-172.8 384-384 384s-384-172.8-384-384 172.8-384 384-384c92.8 0 179.2 35.2 246.4 89.6l339.2-339.2c6.4-6.4 16-9.6 22.4-9.6s16 3.2 22.4 9.6c12.8 19.2 12.8 38.4 0 51.2zM64 576c0 176 144 320 320 320s320-144 320-320-144-320-320-320-320 147.2-320 320z" />
<glyph unicode="&#xe66a;" glyph-name="zzaddress-book" d="M928 960h-720c-52.928 0-96-43.072-96-96v-160h64v160c0 17.632 14.368 32 32 32h720c17.632 0 32-14.368 32-32v-832c0-17.632-14.368-32-32-32h-720c-17.632 0-32 14.368-32 32v160h-64v-160c0-52.928 43.072-96 96-96h720c52.928 0 96 43.072 96 96v832c0 52.928-43.072 96-96 96zM32 576h192c17.664 0 32 14.336 32 32s-14.336 32-32 32h-192c-17.664 0-32-14.336-32-32s14.336-32 32-32zM32 416h192c17.664 0 32 14.336 32 32s-14.336 32-32 32h-192c-17.664 0-32-14.336-32-32s14.336-32 32-32zM256 288c0 17.664-14.336 32-32 32h-192c-17.664 0-32-14.336-32-32s14.336-32 32-32h192c17.664 0 32 14.336 32 32zM288 160h64c0 120.192 97.632 192 192 192s192-71.808 192-192h64c0 114.4-66.4 195.648-150.144 232.96 7.84 6.976 14.944 14.624 21.28 23.008 0.288 0 0.576 0.032 0.864 0.032 94.368 0 192-71.808 192-192h64c0 114.4-66.4 195.648-150.144 232.96 32.96 29.312 54.144 71.584 54.144 119.040 0 88.224-71.776 160-160 160-52.096 0-98.016-25.408-127.264-64.064-0.224 0-0.48 0.064-0.736 0.064-88.224 0-160-71.776-160-160 0-47.456 21.184-89.728 54.144-119.040-83.744-37.312-150.144-118.56-150.144-232.96zM768 576c0-42.592-28.064-78.368-66.56-90.88-0.064-0.416-0.224-0.832-0.288-1.28 1.632 9.184 2.848 18.528 2.848 28.16 0 62.048-35.904 115.392-87.68 141.92 15.744 11.264 34.88 18.080 55.68 18.080 52.928 0 96-43.072 96-96zM680.704 430.112c1.568 2.656 2.976 5.376 4.416 8.096-1.44-2.72-2.816-5.472-4.416-8.096zM694.208 458.816c1.568 4.416 3.008 8.896 4.192 13.472-1.184-4.576-2.592-9.056-4.192-13.472zM570.24 669.344c-8.32 1.376-16.736 2.528-25.44 2.592 8.736-0.064 17.184-1.12 25.44-2.592zM592.96 663.52c-3.936 1.28-7.776 2.72-11.84 3.68 4.032-0.992 7.936-2.368 11.84-3.68zM448 512c0 52.928 43.072 96 96 96s96-43.072 96-96-43.072-96-96-96-96 43.072-96 96z" />
<glyph unicode="&#xe66b;" glyph-name="zzadd-user" d="M768 384c-123.488 0-224-100.48-224-224s100.512-224 224-224 224 100.48 224 224-100.512 224-224 224zM768 0c-88.224 0-160 71.776-160 160s71.776 160 160 160 160-71.776 160-160-71.776-160-160-160zM657.856 424.928c-0.224 0.064-0.48 0.128-0.672 0.192 2.912 1.216 5.664 2.656 8.64 3.808 80.48 51.104 134.176 140.864 134.176 243.072 0 158.784-129.184 288-288 288s-288-129.216-288-288c0-105.216 56.896-197.184 141.376-247.424-180.576-57.376-333.376-218.944-333.376-456.576 0-17.664 14.304-32 32-32s32 14.336 32 32c0 260.384 211.488 416 416 416 23.136 0 46.208-2.688 69.12-6.624 22.816 19.616 48.576 35.808 76.736 47.552zM288 672c0 123.52 100.512 224 224 224s224-100.48 224-224-100.512-224-224-224-224 100.48-224 224zM864 192h-64v64c0 17.664-14.336 32-32 32s-32-14.336-32-32v-64h-64c-17.664 0-32-14.336-32-32s14.336-32 32-32h64v-64c0-17.664 14.336-32 32-32s32 14.336 32 32v64h64c17.664 0 32 14.336 32 32s-14.336 32-32 32z" />
<glyph unicode="&#xe66c;" glyph-name="zzalready-tasks" d="M800 416c-123.488 0-224-100.512-224-224.032 0-123.488 100.512-223.968 224-223.968s224 100.48 224 223.968c0 123.52-100.512 224.032-224 224.032zM800 32c-88.224 0-160 71.744-160 159.968 0 88.256 71.776 160.032 160 160.032s160-71.776 160-160.032c0-88.224-71.776-159.968-160-159.968zM932.16 269.408c-12.192 12.864-32.416 13.344-45.248 1.248l-105.12-99.488-55.68 49.024c-13.216 11.648-33.472 10.432-45.152-2.848-11.68-13.248-10.4-33.504 2.848-45.152l77.408-68.192c2.688-2.368 5.728-4 8.832-5.312 0.128-0.032 0.224-0.16 0.352-0.192 3.84-1.568 7.84-2.496 11.936-2.496 0.064 0 0.128 0.032 0.192 0.032 0.096 0 0.16-0.032 0.224-0.032 4.288 0 8.48 0.992 12.48 2.72 0.128 0.032 0.224 0.16 0.352 0.224 3.296 1.44 6.432 3.232 9.184 5.824l126.144 119.392c12.832 12.16 13.376 32.416 1.248 45.248zM512 416c0 17.664-14.336 32-32 32h-320c-17.664 0-32-14.336-32-32 0-17.696 14.336-32 32-32h320c17.664 0 32 14.304 32 32zM160 288c-17.664 0-32-14.304-32-32s14.336-32 32-32h256c17.664 0 32 14.304 32 32s-14.336 32-32 32h-256zM512 96h-416c-17.632 0-32 14.336-32 32v384h640v-32c0-17.664 14.304-32 32-32s32 14.336 32 32v224c0 52.928-43.072 96-96 96h-96v64c0 17.664-14.304 32-32 32-17.664 0-32-14.336-32-32v-64h-256v64c0 17.664-14.336 32-32 32s-32-14.336-32-32v-64h-96c-52.928 0-96-43.072-96-96v-576c0-52.928 43.072-96 96-96h416c17.664 0 32 14.304 32 32s-14.336 32-32 32zM96 736h96v-64c0-17.664 14.336-32 32-32s32 14.336 32 32v64h256v-64c0-17.664 14.336-32 32-32 17.696 0 32 14.336 32 32v64h96c17.664 0 32-14.368 32-32v-128h-640v128c0 17.632 14.368 32 32 32z" />
<glyph unicode="&#xe66d;" glyph-name="zzandroid" d="M768 640h-512c-17.696 0-32-14.304-32-32v-448c0-17.696 14.304-32 32-32h64v-128c0-35.328 28.672-64 64-64s64 28.672 64 64v128h128v-128c0-35.328 28.672-64 64-64s64 28.672 64 64v128h64c17.696 0 32 14.304 32 32v448c0 17.696-14.304 32-32 32zM128 640c-35.328 0-64-28.672-64-64v-256c0-35.328 28.672-64 64-64s64 28.672 64 64v256c0 35.328-28.672 64-64 64zM896 640c-35.328 0-64-28.672-64-64v-256c0-35.328 28.672-64 64-64s64 28.672 64 64v256c0 35.328-28.672 64-64 64zM798.656 694.24c-4.864 14.944-11.072 29.312-18.304 43.104 0.064 0.064 0.128 0.128 0.192 0.16-1.088 2.080-2.56 3.936-3.712 6.016-4.16 7.456-8.672 14.72-13.472 21.792-2.016 2.912-3.872 5.888-5.984 8.704-6.048 8.192-12.64 15.968-19.488 23.488-2.464 2.688-4.96 5.376-7.52 7.968-7.264 7.36-14.848 14.4-22.816 20.96-2.528 2.080-5.12 4-7.744 6.016-8.032 6.208-16.352 12.096-25.056 17.504-2.144 1.344-4.352 2.624-6.528 3.904-4.608 2.656-9.44 4.864-14.144 7.296l62.112 72.48c5.76 6.688 4.96 16.8-1.76 22.56-6.624 5.728-16.736 4.992-22.56-1.728l-68.192-79.552c-7.488 2.848-15.008 5.76-22.784 8.064-2.816 0.832-5.632 1.632-8.448 2.368-11.328 3.040-22.88 5.504-34.688 7.232-2.208 0.352-4.512 0.544-6.72 0.8-12.64 1.568-25.44 2.592-38.528 2.624-0.128-0.032-0.256 0-0.384 0-0.032 0-0.096 0-0.128 0s-0.096 0-0.128 0c-0.128 0-0.224-0.032-0.384-0.032-13.088-0.032-25.92-1.056-38.528-2.624-2.208-0.288-4.48-0.48-6.72-0.8-11.808-1.728-23.36-4.192-34.688-7.232-2.816-0.736-5.632-1.536-8.448-2.368-7.744-2.304-15.296-5.216-22.784-8.064l-68.16 79.52c-5.792 6.72-15.904 7.456-22.56 1.728-6.72-5.728-7.52-15.84-1.76-22.528l62.112-72.48c-4.704-2.432-9.568-4.608-14.144-7.296-2.176-1.28-4.384-2.56-6.528-3.904-8.672-5.408-17.024-11.296-25.056-17.504-2.592-2.016-5.216-3.904-7.712-6.016-8-6.528-15.616-13.6-22.848-20.928-2.56-2.624-5.056-5.28-7.52-7.968-6.848-7.52-13.44-15.328-19.488-23.488-2.080-2.848-4-5.824-5.984-8.768-4.768-7.040-9.312-14.272-13.472-21.76-1.184-2.048-2.624-3.904-3.744-5.984 0.064-0.032 0.128-0.096 0.192-0.16-7.264-13.792-13.408-28.16-18.304-43.104-0.032-0.032-0.032-0.064-0.032-0.096-0.224-0.64-1.312-5.6-1.312-6.144 0-8.832 7.456-16 16.704-16 0.096 0 0.16 0.064 0.256 0.064l0.064-0.064 542.016 0.064c0.096 0 0.16-0.064 0.256-0.064 9.248 0 16.704 7.168 16.704 16 0 0.544-1.056 5.504-1.312 6.144 0 0.032 0 0.064-0.032 0.096zM416 736c-17.696 0-32 14.304-32 32s14.304 32 32 32 32-14.304 32-32-14.304-32-32-32zM608 736c-17.696 0-32 14.304-32 32s14.304 32 32 32 32-14.304 32-32-14.304-32-32-32z" />
<glyph unicode="&#xe66e;" glyph-name="zzappoint" d="M1005.984 571.52c-22.368 38.88-62.496 61.184-110.016 61.184h-271.072c19.872 49.056 47.072 128.672 47.072 196.192 0 74.432-57.696 119.008-111.264 128.928-50.496 9.216-95.104-11.68-110.816-52.672-80.32-218.144-207.392-291.968-233.248-305.088h-128.672c-48.48 0.032-87.936-43.072-87.936-96.032v-426.080c0-52.96 39.456-96.064 87.936-96.064h167.904c30.176 0 58.688 0 149.728-30.944l4.032-1.056c46.464-9.248 88.288-13.888 125.312-13.888 72.384 0 126.464 17.696 161.472 52.8 35.776 36.064 41.376 80.32 40.928 106.56 42.912 35.264 43.328 96.256 33.888 138.72 34.816 46.752 27.616 100.704 14.752 139.008h109.856c0.192 0 0.416 0 0.672 0 47.136 0 87.008 22.016 109.312 60.48 24.224 41.792 24.288 95.968 0.16 137.952zM95.968 45.888h-8c-12.96 0-23.936 14.688-23.936 32v426.144c0 17.376 10.976 32.064 23.936 32.064h47.968c12.96 0 23.936-14.688 23.936-32.064v-426.080c0-17.376-10.976-32.064-23.936-32.064h-39.968zM950.464 465.728c-7.584-13.088-23.136-28.64-54.112-28.64-0.128 0-0.256 0-0.384 0h-219.168l32.352-49.536c0.512-0.736 49.376-76.8 3.968-123.104l-13.664-13.92 6.048-18.464c0.256-0.672 21.824-72.672-16.096-91.968l-21.248-11.136 4.384-23.552c0.32-1.728 7.552-42.816-21.984-71.968-25.376-25.024-85.248-48.96-226.4-21.248-99.488 33.6-134.464 33.6-168.256 33.6h-37.44c3.296 10.048 5.408 20.768 5.408 32.064v426.176c0 11.328-2.112 22.016-5.408 32.064h4.928c0.064 0 0.096 0 0.16 0 0 0 10.432 1.568 12.384 2.368 0.032 0.032 0.224 0.096 0.256 0.128 0.064 0.032 0.128 0.064 0.224 0.096 10.016 4.128 174.688 76 273.344 343.968 5.152 13.472 24.352 15.040 39.328 12.256 28.352-5.248 58.88-28.128 58.88-66.016 0-89.088-60.128-212.864-60.704-214.112l-22.624-46.080h371.328c31.328 0 46.944-15.808 54.592-29.088 12.544-21.792 12.48-52.224-0.096-73.888z" />
<glyph unicode="&#xe66f;" glyph-name="zzbatch" d="M672 928c0 19.2-12.8 32-32 32h-544c-54.4 0-96-41.6-96-96v-576c0-19.2 12.8-32 32-32s32 12.8 32 32v576c0 19.2 12.8 32 32 32h544c19.2 0 32 12.8 32 32zM832 800c0 19.2-12.8 32-32 32h-576c-51.2 0-96-44.8-96-96v-576c0-19.2 12.8-32 32-32s32 12.8 32 32v576c0 19.2 12.8 32 32 32h576c19.2 0 32 12.8 32 32zM928 704h-576c-54.4 0-96-41.6-96-96v-576c0-54.4 41.6-96 96-96h576c54.4 0 96 41.6 96 96v576c0 54.4-41.6 96-96 96zM960 32c0-19.2-12.8-32-32-32h-576c-19.2 0-32 12.8-32 32v576c0 19.2 12.8 32 32 32h576c19.2 0 32-12.8 32-32v-576zM512 448h256c19.2 0 32 12.8 32 32s-12.8 32-32 32h-256c-19.2 0-32-12.8-32-32s12.8-32 32-32zM832 352h-320c-19.2 0-32-12.8-32-32s12.8-32 32-32h320c19.2 0 32 12.8 32 32s-12.8 32-32 32zM736 192h-224c-19.2 0-32-12.8-32-32s12.8-32 32-32h224c19.2 0 32 12.8 32 32s-12.8 32-32 32z" />
<glyph unicode="&#xe670;" glyph-name="zzcalculation" d="M416 960h-352c-35.296 0-64-28.704-64-64v-352c0-35.296 28.704-64 64-64h352c35.296 0 64 28.704 64 64v352c0 35.296-28.704 64-64 64zM64 544v352h352l0.032-352h-352.032zM960 416h-352c-35.296 0-64-28.704-64-64v-352c0-35.296 28.704-64 64-64h352c35.296 0 64 28.704 64 64v352c0 35.296-28.704 64-64 64zM608 0v352h352l0.032-352h-352.032zM352 752h-80v80c0 17.696-14.336 32-32 32s-32-14.304-32-32v-80h-80c-17.664 0-32-14.304-32-32s14.336-32 32-32h80v-80c0-17.696 14.336-32 32-32s32 14.304 32 32v80h80c17.664 0 32 14.304 32 32s-14.336 32-32 32zM416 416h-352c-35.296 0-64-28.704-64-64v-352c0-35.296 28.704-64 64-64h352c35.296 0 64 28.704 64 64v352c0 35.296-28.704 64-64 64zM64 0v352h352l0.032-352h-352.032zM341.824 277.824c-12.512 12.512-32.736 12.512-45.248 0l-56.576-56.576-56.576 56.576c-12.512 12.512-32.736 12.512-45.248 0s-12.512-32.736 0-45.248l56.576-56.576-56.576-56.608c-12.512-12.512-12.512-32.736 0-45.248 6.24-6.24 14.432-9.376 22.624-9.376s16.384 3.136 22.624 9.376l56.576 56.576 56.576-56.576c6.24-6.24 14.432-9.376 22.624-9.376s16.384 3.136 22.624 9.376c12.512 12.512 12.512 32.736 0 45.248l-56.576 56.608 56.576 56.576c12.48 12.48 12.48 32.736 0 45.248zM960 960h-352c-35.296 0-64-28.704-64-64v-352c0-35.296 28.704-64 64-64h352c35.296 0 64 28.704 64 64v352c0 35.296-28.704 64-64 64zM608 544v352h352l0.032-352h-352.032zM896 752h-224c-17.664 0-32-14.304-32-32s14.336-32 32-32h224c17.664 0 32 14.304 32 32s-14.336 32-32 32zM896 272h-224c-17.664 0-32-14.304-32-32s14.336-32 32-32h224c17.664 0 32 14.304 32 32s-14.336 32-32 32zM896 144h-224c-17.664 0-32-14.304-32-32s14.336-32 32-32h224c17.664 0 32 14.304 32 32s-14.336 32-32 32z" />
<glyph unicode="&#xe671;" glyph-name="zzcheck" d="M256 720v-32c0-19.2 12.8-48 32-48h448c19.2 0 32 28.8 32 48v32c0 16-16 16-32 16h-96v92.8c0 73.6-57.6 131.2-128 131.2s-128-57.6-128-131.2v-92.8h-96c0 0-32 0-32-16zM512 870.4c35.2 0 64-28.8 64-64s-28.8-64-64-64-64 28.8-64 64 28.8 64 64 64zM832 832h-160v-64h160c19.2 0 32 0 32-16v-720c0-19.2-12.8-32-32-32h-640c-19.2 0-32 12.8-32 32v720c0 16 12.8 16 32 16h160v64h-160c-54.4 0-96-28.8-96-80v-720c0-54.4 41.6-96 96-96h640c54.4 0 96 41.6 96 96v720c0 51.2-41.6 80-96 80zM710.4 518.4l-265.6-294.4-134.4 137.6c-12.8 12.8-32 12.8-44.8 0s-12.8-32 0-44.8l160-160c0 0 0 0 0 0 3.2-3.2 9.6-6.4 9.6-6.4 3.2 0 6.4-3.2 12.8-3.2 0 0 0 0 0 0s0 0 0 0c3.2 0 9.6 0 12.8 3.2 3.2 0 9.6 6.4 12.8 6.4l288 320c12.8 12.8 9.6 32-3.2 44.8-16 9.6-35.2 9.6-48-3.2z" />
<glyph unicode="&#xe672;" glyph-name="zzchoose" d="M1021.568 940.256c-4.928 11.936-16.64 19.744-29.568 19.744h-960c-12.928 0-24.64-7.808-29.568-19.744-4.96-11.968-2.208-25.76 6.944-34.912l310.624-310.176v-370.976c0-17.696 14.304-32 32-32s32 14.304 32 32v384.256c0 4.192-0.832 8.352-2.464 12.256-1.504 3.616-3.712 6.816-6.368 9.6-0.224 0.256-0.288 0.576-0.544 0.8l-265.28 264.896h805.312l-265.28-264.896c-0.256-0.256-0.32-0.576-0.576-0.8-2.624-2.816-4.832-5.984-6.336-9.6-1.664-3.936-2.464-8.064-2.464-12.256v0-572.096l-139.488 116.352c-13.632 11.36-33.824 9.504-45.056-4.064-11.328-13.568-9.504-33.76 4.064-45.056l192-160.128c5.856-4.928 13.152-7.456 20.48-7.456 4.64 0 9.248 0.992 13.568 3.072 11.232 5.216 18.432 16.48 18.432 28.928v627.168l310.624 310.176c9.152 9.152 11.904 22.944 6.944 34.912z" />
<glyph unicode="&#xe673;" glyph-name="zzcopy" d="M486.4 534.4c-12.8 12.8-32 12.8-44.8 0s-12.8-32 0-44.8l41.6-41.6h-259.2c-19.2 0-32-12.8-32-32s12.8-32 32-32h259.2l-41.6-41.6c-12.8-12.8-12.8-32 0-44.8 6.4-6.4 16-9.6 22.4-9.6 9.6 0 16 3.2 22.4 9.6l96 92.8c6.4 6.4 9.6 12.8 9.6 22.4s-3.2 16-9.6 22.4l-96 99.2zM982.4 598.4l-256 256c-6.4 6.4-12.8 9.6-22.4 9.6h-83.2c0 0 0 3.2-3.2 3.2l-83.2 83.2c-6.4 6.4-12.8 9.6-22.4 9.6h-384c-54.4 0-96-41.6-96-96v-640c0-54.4 41.6-96 96-96h96c0 0 0 0 0 0v-96c0-54.4 41.6-96 96-96h576c54.4 0 96 41.6 96 96v544c0 9.6-3.2 16-9.6 22.4zM736 755.2l147.2-147.2h-147.2v147.2zM928 32c0-19.2-16-32-32-32h-576c-19.2 0-32 16-32 32v224c0 19.2-12.8 32-32 32s-32-12.8-32-32v-64c0 0 0 0 0 0h-96c-19.2 0-32 16-32 32v640c0 19.2 16 32 32 32h371.2l32-32h-211.2c-54.4 0-96-41.6-96-96v-192c0-19.2 12.8-32 32-32s32 12.8 32 32v192c0 19.2 16 32 32 32h352v-224c0-19.2 12.8-32 32-32h224v-512z" />
<glyph unicode="&#xe674;" glyph-name="zzcount-down" d="M837.6 128h-37.6c0 157.152-84.384 290.528-200.544 336 108.192 42.336 188.672 160.96 199.232 304h38.912c49.824 0 90.4 43.072 90.4 96.032 0 52.928-40.576 95.968-90.4 95.968h-651.168c-49.856 0-90.432-43.040-90.432-95.968 0-52.96 40.576-96.032 90.432-96.032h38.88c10.56-143.040 91.040-261.664 199.232-304-116.16-45.472-200.544-178.848-200.544-336h-37.568c-49.856 0-90.432-43.072-90.432-96.032 0-52.928 40.576-95.968 90.432-95.968h651.168c49.824 0 90.4 43.040 90.4 95.968 0 52.96-40.576 96.032-90.4 96.032zM160 864.032c0 17.632 11.872 31.968 26.432 31.968h651.168c14.56 0 26.4-14.336 26.4-31.968 0-17.664-11.84-32.032-26.4-32.032h-651.168c-14.56 0-26.432 14.368-26.432 32.032zM289.472 768h445.056c-12.416-144.192-107.424-256.736-222.528-256.736s-210.112 112.544-222.528 256.736zM512 416.736c123.488 0 224-129.536 224-288.736h-448c0 159.232 100.512 288.736 224 288.736zM837.6 0h-651.168c-14.56 0-26.432 14.336-26.432 31.968 0 17.664 11.872 32.032 26.432 32.032h651.168c14.56 0 26.4-14.368 26.4-32.032 0-17.632-11.84-31.968-26.4-31.968z" />
<glyph unicode="&#xe675;" glyph-name="zzcut" d="M1014.4 48c-6.4 9.6-16 19.2-25.6 25.6-3.2 3.2-9.6 9.6-16 9.6-6.4 3.2-12.8 6.4-19.2 9.6s-16 6.4-22.4 12.8c-9.6 3.2-16 9.6-22.4 19.2-6.4 6.4-12.8 16-19.2 25.6s-12.8 19.2-19.2 32c6.4 6.4 9.6 12.8 16 19.2l16 19.2c16 19.2 28.8 41.6 35.2 57.6 6.4 19.2 12.8 35.2 16 48s3.2 25.6 0 35.2c0 9.6-3.2 12.8-6.4 16s-9.6 6.4-12.8 6.4c-6.4 0-9.6-3.2-12.8-6.4-3.2-6.4-6.4-12.8-12.8-22.4s-9.6-19.2-19.2-32c-6.4-12.8-12.8-25.6-22.4-38.4-6.4-12.8-16-25.6-25.6-38.4-3.2-3.2-3.2-6.4-6.4-6.4-3.2-3.2-3.2-6.4-6.4-6.4-9.6 12.8-19.2 25.6-28.8 41.6-9.6 12.8-19.2 25.6-25.6 38.4-9.6 12.8-16 25.6-22.4 35.2s-12.8 19.2-19.2 28.8c3.2 6.4 0 6.4-6.4 6.4-3.2 0-6.4-3.2-9.6-3.2-3.2-6.4-6.4-12.8-6.4-25.6 0-9.6 3.2-22.4 6.4-38.4 3.2-12.8 9.6-28.8 16-44.8s16-32 28.8-44.8c6.4-6.4 9.6-12.8 16-19.2s12.8-12.8 22.4-19.2c-3.2-6.4-9.6-12.8-12.8-19.2s-9.6-12.8-12.8-19.2c-3.2-3.2-3.2-3.2-6.4-6.4v0c0 0-3.2-3.2-3.2-3.2s-3.2-3.2-3.2-3.2c-6.4-6.4-12.8-12.8-19.2-16s-16-9.6-25.6-12.8c-9.6-3.2-16-9.6-25.6-16s-16-12.8-25.6-19.2c-9.6-6.4-16-16-19.2-25.6s-6.4-19.2-6.4-32c0-9.6 3.2-19.2 6.4-28.8s9.6-16 16-22.4c6.4-6.4 16-12.8 22.4-16 9.6-3.2 19.2-6.4 28.8-6.4 16 0 28.8 3.2 41.6 12.8s22.4 19.2 25.6 35.2c6.4 9.6 9.6 19.2 9.6 28.8 3.2 6.4 3.2 16 3.2 19.2 0 6.4 0 9.6-3.2 16 0 3.2-3.2 9.6-3.2 12.8s-3.2 9.6-3.2 12.8c0 3.2 0 9.6 3.2 16 0 3.2 3.2 3.2 3.2 6.4s3.2 3.2 3.2 6.4c6.4 6.4 12.8 16 16 22.4 6.4 6.4 12.8 16 16 22.4 0 0 0-3.2 3.2-3.2 0 0 3.2-3.2 3.2-3.2 6.4-6.4 9.6-16 16-22.4 3.2-6.4 9.6-12.8 12.8-19.2 3.2-9.6 3.2-16 3.2-28.8 0-9.6 0-22.4 0-32s0-22.4 0-32c0-9.6 3.2-19.2 9.6-25.6 0 0 19.2-25.6 32-32s22.4-9.6 35.2-9.6c9.6 0 19.2 3.2 28.8 6.4s16 9.6 22.4 16c6.4 6.4 12.8 16 16 22.4 3.2 9.6 6.4 19.2 6.4 28.8 9.6 6.4 6.4 16 0 28.8zM739.2-12.8c-6.4-6.4-16-9.6-25.6-9.6s-19.2 3.2-25.6 9.6c-6.4 6.4-9.6 16-9.6 25.6s3.2 19.2 9.6 25.6c6.4 6.4 16 9.6 25.6 9.6s19.2-3.2 25.6-9.6c6.4-6.4 9.6-16 9.6-25.6s0-19.2-9.6-25.6zM976-12.8c-6.4-6.4-16-9.6-25.6-9.6-6.4 0-9.6 0-16 3.2-3.2 3.2-9.6 3.2-12.8 6.4s-6.4 6.4-6.4 12.8c-3.2 3.2-3.2 9.6-3.2 12.8 0 9.6 3.2 19.2 9.6 25.6s16 9.6 25.6 9.6c9.6 0 19.2-3.2 25.6-9.6s9.6-16 9.6-25.6 0-19.2-6.4-25.6zM672 544h224v-64c0-19.2 12.8-32 32-32s32 12.8 32 32v96c0 9.6-3.2 16-9.6 22.4l-256 256c-6.4 6.4-12.8 9.6-22.4 9.6h-83.2l-86.4 86.4c-6.4 6.4-12.8 9.6-22.4 9.6h-384c-54.4 0-96-41.6-96-96v-640c0-54.4 41.6-96 96-96h96c0 0 0 0 0 0v-96c0-54.4 41.6-96 96-96h256c19.2 0 32 12.8 32 32s-12.8 32-32 32h-256c-19.2 0-32 16-32 32v736c0 19.2 16 32 32 32h352v-224c0-19.2 12.8-32 32-32zM192 768v-576c0 0 0 0 0 0h-96c-19.2 0-32 16-32 32v640c0 19.2 16 32 32 32h371.2l32-32h-211.2c-54.4 0-96-41.6-96-96zM704 755.2l147.2-147.2h-147.2v147.2z" />
<glyph unicode="&#xe676;" glyph-name="zzdelete-user" d="M768 384c-123.488 0-224-100.512-224-224s100.512-224 224-224 224 100.512 224 224-100.512 224-224 224zM768 0c-88.224 0-160 71.776-160 160s71.776 160 160 160 160-71.776 160-160-71.776-160-160-160zM657.856 424.928c-0.224 0.064-0.48 0.128-0.672 0.192 2.912 1.216 5.664 2.688 8.64 3.808 80.48 51.136 134.176 140.864 134.176 243.072 0 158.816-129.184 288-288 288s-288-129.184-288-288c0-105.216 56.896-197.184 141.376-247.424-180.576-57.376-333.376-218.944-333.376-456.576 0-17.696 14.304-32 32-32s32 14.304 32 32c0 260.384 211.488 416 416 416 23.136 0 46.208-2.688 69.12-6.624 22.816 19.616 48.576 35.808 76.736 47.552zM288 672c0 123.488 100.512 224 224 224s224-100.512 224-224-100.512-224-224-224-224 100.512-224 224zM864 192h-192c-17.664 0-32-14.336-32-32s14.336-32 32-32h192c17.664 0 32 14.336 32 32s-14.336 32-32 32z" />
<glyph unicode="&#xe677;" glyph-name="zzempty" d="M938.784 352h15.84c10.304 0 20 4.928 26.048 13.376 6.016 8.448 7.552 19.2 4.256 28.928l-65.888 193.344c-4.448 12.96-16.64 21.696-30.304 21.696h-231.584v254.656c0 52.928-43.936 96-97.984 96h-65.92c-53.984 0-97.92-43.072-97.92-96v-254.656h-231.52c-13.696 0-25.888-8.704-30.304-21.696l-65.888-193.344c-3.328-9.824-1.728-20.576 4.288-28.928 6.016-8.448 15.68-13.376 26.016-13.376h33.376c-1.984-72.672-10.432-173.472-28.928-209.376-14.048-27.328-36.128-48.736-55.616-67.68-25.056-24.384-46.752-45.408-46.752-74.944 0-15.84 0-64 163.808-64h757.888c6.88 0 13.504 2.176 19.008 6.24 24.544 18.016 67.168 52.32 76.896 78.56 27.456 73.792-39.968 243.872-78.816 331.2zM186.72 545.344h240.704c17.664 0 32 14.336 32 32 0 2.624-0.896 4.928-1.472 7.328 0.608 2.432 1.472 4.736 1.472 7.328v272c0 17.632 15.2 32 33.888 32h65.952c18.688 0 33.92-14.368 33.92-32v-272c0-2.592 0.896-4.896 1.472-7.328-0.576-2.4-1.472-4.704-1.472-7.328 0-17.664 14.272-32 32-32h240.704l44.064-129.344h-767.296l44.064 129.344zM957.952 43.936c-3.808-7.328-24.672-26.688-47.008-43.936h-63.872c9.024 14.112 18.208 29.76 22.016 40.672 7.136 20.48 10.88 78.368 12.192 102.368 0.48 8.736-2.72 17.376-8.704 23.712-6.048 6.368-14.432 9.984-23.264 9.984h-0.032l-48.16-0.064c-16.672 0-30.56-12.832-31.872-29.504-1.824-22.912-5.6-53.376-7.424-58.976-7.808-12.96-61.792-58.336-100.48-88.256h-64.704c10.944 14.080 21.376 29.344 25.312 40.672 7.808 22.24 5.312 70.688 3.872 90.432-1.184 16.704-15.136 29.696-31.872 29.696h-0.064l-48.064-0.064c-16.384 0-30.016-12.352-31.808-28.576-1.984-18.112-5.76-39.424-7.776-44.256-5.408-10.528-40.672-43.872-78.56-74.336-0.896-0.704-1.856-1.568-2.656-2.336-3.232-3.264-5.344-7.168-6.912-11.232h-24.16c9.088 14.080 18.272 29.792 22.080 40.704 8.096 23.328 0.352 69.312-4.992 94.624-3.136 14.816-16.192 25.44-31.328 25.44h-0.032l-48.096-0.064c-12.16 0-23.328-6.944-28.672-17.92 0 0-20.864-42.432-27.296-54.912-6.464-12.576-42.304-48.992-71.776-75.584-3.84-3.36-6.336-7.584-8.128-12.224h-31.904c-34.336 0-71.84 3.904-92.224 8.992 5.696 6.304 13.408 13.888 19.776 20.032 21.888 21.216 49.088 47.648 67.968 84.32 27.968 54.336 34.528 178.496 36.032 238.656h673.152c49.6-106.976 106.144-263.008 89.44-308.064z" />
<glyph unicode="&#xe678;" glyph-name="zzend-tasks" d="M32 32.608h960c17.696 0 32 14.304 32 32s-14.304 32-32 32h-960c-17.696 0-32-14.304-32-32s14.304-32 32-32zM992 0h-960c-17.696 0-32-14.304-32-32s14.304-32 32-32h960c17.696 0 32 14.304 32 32s-14.304 32-32 32zM122.432 163.040c7.968-1.408 197.472-34.496 389.568-34.496s382.336 33.056 390.336 34.464c15.328 2.72 26.464 16 26.464 31.52v256c0 9.44-4.192 18.4-11.392 24.512-4.48 3.744-9.856 5.632-15.488 6.528-1.056 0.288-1.952 0.928-3.072 1.12-42.304 6.176-162.528 37.6-163.904 98.752v208.672c0 76.256-54.112 138.272-120.64 138.272h-205.152c-66.496 0-120.64-62.016-120.64-138.272v-211.008c-4.352-59.616-121.856-90.336-163.616-96.448-1.184-0.16-2.080-0.864-3.232-1.152-2.016-0.416-3.808-1.28-5.76-2.048-1.44-0.704-2.88-1.28-4.192-2.176-1.44-0.832-3.072-1.184-4.352-2.24-7.168-6.080-11.36-15.040-11.36-24.512v-256c0-15.52 11.168-28.8 26.432-31.488zM864.8 221.792c-58.912-9.024-207.168-29.248-352.8-29.248-145.44 0-293.216 20.224-352 29.248v191.264c65.728-9.792 207.84-28.096 352-28.096 144.256 0 286.944 18.336 352.8 28.128v-191.296zM352.928 582.432c0 0.704-0.384 1.312-0.416 2.016v205.664c0 40.256 25.952 74.272 56.64 74.272h205.152c30.688 0 56.64-34.016 56.64-74.272v-207.072c0-0.224-0.128-0.416-0.128-0.64 0-0.448 0.128-0.8 0.128-1.248v-2.4c0-0.864 0.448-1.568 0.512-2.432 2.784-52.672 40.224-88.768 83.68-112.768-69.056-7.616-156.32-14.656-243.136-14.656-86.944 0-174.272 7.104-243.296 14.72 45.152 25.024 84.224 62.752 84.224 118.816z" />
<glyph unicode="&#xe679;" glyph-name="zzgood" d="M947.616 410.656c22.56 62.336 13.664 118.688-25.504 155.392-40.544 37.888-107.072 47.936-176.128 30.016 33.664 95.168 34.688 202.72 14.208 273.184-12.352 42.496-31.296 70.72-56.384 83.936-8.128 4.288-15.808 6.752-72.896 6.784v0.096c-0.192 0-0.384 0-0.576 0-17.664-0.064-31.904-24.224-31.84-41.92 0.416-92.384-68.384-232.448-156.576-318.816-39.52-38.752-99.392-84.864-167.072-82.976-0.544 0-1.056-0.288-1.6-0.32-9.6 40.16-42.016 70.016-80.8 70.016h-44.48c-46.304 0.032-83.968-42.272-83.968-94.176v-413.76c0-51.904 37.664-94.144 83.968-94.144h44.512c32.544 0 60.544 21.12 74.464 51.552 5.664-1.696 11.296-3.328 17.568-5.184 28-8.064 62.816-18.112 83.424-29.632 54.304-30.432 183.616-64.64 289.152-64.64 40.128 0 76.832 4.928 104.672 16.864 46.688 20.064 61.216 52 71.84 75.328 2.016 4.576 4.48 8.928 6.784 13.312 37.376 19.328 87.456 64.224 73.824 162.72 47.904 41.408 56.736 131.936 33.408 206.368zM212.416 78.144c0-17.824-10.496-30.208-19.936-30.208h-44.512c-9.44-0.032-19.968 12.416-19.968 30.208v413.728c0 17.824 10.528 30.176 19.968 30.176h44.512c9.44 0 19.936-12.416 19.936-30.176v-413.728zM806.016 96.032c-2.016-0.864-3.36-2.432-5.056-3.648-1.824-0.96-3.328-2.144-4.896-3.456-0.16-0.192-0.352-0.384-0.544-0.576-2.112-1.952-4.384-3.68-6.016-6.176-6.016-9.44-10.336-18.912-14.144-27.328-8.96-19.744-14.944-32.768-38.88-43.104-72.384-31.072-268.608 6.176-337.216 44.736-27.040 15.104-64.192 25.856-96.96 35.328-9.664 2.784-18.144 5.28-25.856 7.712v352.864c0.608-0.032 1.184-0.032 1.792-0.032 68.832 0 140.832 34.976 208.544 101.28 95.616 93.696 165.568 233.312 174.112 341.952 8.064-0.224 12.928-0.448 15.68-0.704 5.568-4.736 14.688-17.632 22.144-43.392 20.896-72.16 15.168-197.504-36.768-287.744-8.768-15.328-3.488-34.88 11.808-43.68 4.992-2.88 10.496-4.256 15.904-4.256 3.040 0 6.016 0.512 8.8 1.312 6.816-1.568 14.080-1.408 20.896 1.824 62.176 29.792 127.488 29.92 158.88 0.512 26.784-24.992 18.752-64.288 7.296-92.8-0.768-1.984-0.704-3.936-1.088-5.984-2.368-6.688-2.976-14.016-0.384-21.248 23.872-66.144 9.952-138.24-18.24-150.848-15.68-7.040-22.688-25.056-16.48-40.864 0.096-0.736-0.16-1.44-0.032-2.144 14.016-74.56-17.984-98.176-43.296-109.536z" />
<glyph unicode="&#xe67a;" glyph-name="zzios" d="M840.192 248.576c-2.24 2.016-4.288 4.32-6.432 6.464-4 3.968-7.904 8.064-11.584 12.384-2.208 2.592-4.416 5.28-6.496 8-3.712 4.768-7.2 9.728-10.464 14.816-1.408 2.112-2.88 4.192-4.192 6.368-4.544 7.552-8.672 15.392-12.256 23.52-0.448 1.056-0.8 2.144-1.248 3.232-3.136 7.456-5.856 15.136-8.128 23.008-0.512 1.76-0.992 3.488-1.44 5.28-2.176 8.224-3.904 16.64-5.088 25.216-1.28 9.472-2.176 19.072-2.176 28.896 0 86.080 51.104 160.096 124.544 193.824-45.184 59.584-116.576 98.24-197.184 98.24-30.944 0-60.448-5.952-87.712-16.288-35.584-11.872-63.712-15.712-89.376-15.712-28.352 0-59.232 4.704-99.808 19.456-24.384 8.032-50.368 12.544-77.472 12.544-136.8 0-247.68-110.816-247.68-247.552 0-6.688 0.672-75.904 4.8-108.544 42.816-338.592 204-405.728 256.032-405.728 47.808 0 106.24 42.016 164.064 40.352 57.792 1.664 116.224-40.352 164.032-40.352 44.032 0 165.952 48.736 228.448 268.672-27.424 9.568-52.192 24.704-73.184 43.904zM706.176 935.52c0 8.288-0.576 16.448-1.472 24.48-112.032-9.664-199.968-103.456-199.968-218.016 0-8.288 0.544-16.448 1.44-24.48 112.032 9.664 200 103.456 200 218.016z" />
<glyph unicode="&#xe67b;" glyph-name="zzleading-in" d="M912.672 960h-641.344c-61.376 0-111.328-49.984-111.328-111.36v-48.64h-48.672c-61.376 0-111.328-49.952-111.328-111.328v-641.312c0-61.408 49.952-111.36 111.328-111.36h641.312c61.408 0 111.36 49.952 111.36 111.328v48.672h48.672c61.376 0 111.328 49.984 111.328 111.36v641.28c0 61.376-49.952 111.36-111.328 111.36zM960 207.36c0-26.112-21.248-47.36-47.328-47.36h-48.672v384c0 17.696-14.304 32-32 32s-32-14.304-32-32v-496.672c0-26.080-21.248-47.328-47.328-47.328h-641.344c-26.080 0-47.328 21.248-47.328 47.328v641.344c0 26.080 21.248 47.328 47.328 47.328h496.672c17.696 0 32 14.304 32 32s-14.304 32-32 32h-384v48.64c0 26.112 21.248 47.36 47.328 47.36h641.312c26.112 0 47.36-21.248 47.36-47.36v-641.28zM809.376 790.624l-393.376-393.376v146.752c0 17.696-14.304 32-32 32s-32-14.304-32-32v-224c0-4.16 0.832-8.32 2.464-12.224 3.264-7.84 9.472-14.048 17.312-17.312 3.904-1.632 8.064-2.464 12.224-2.464h224c17.696 0 32 14.304 32 32s-14.304 32-32 32h-146.752l393.376 393.376c12.512 12.512 12.512 32.736 0 45.248s-32.736 12.512-45.248 0z" />
<glyph unicode="&#xe67c;" glyph-name="zzload" d="M512 960c-17.664 0-32-14.336-32-32v-192c0-17.664 14.336-32 32-32s32 14.336 32 32v192c0 17.664-14.336 32-32 32zM992 480h-192c-17.696 0-32-14.336-32-32s14.304-32 32-32h192c17.696 0 32 14.336 32 32s-14.304 32-32 32zM256 448c0 17.664-14.336 32-32 32h-192c-17.664 0-32-14.336-32-32s14.336-32 32-32h192c17.664 0 32 14.336 32 32zM734.016 560c5.952-10.272 16.672-16 27.744-16 5.44 0 10.944 1.376 15.968 4.288l166.272 96c15.328 8.832 20.576 28.416 11.712 43.712-8.864 15.328-28.512 20.576-43.712 11.712l-166.272-96c-15.328-8.832-20.576-28.384-11.712-43.712zM655.968 670.016c5.024-2.912 10.528-4.288 15.968-4.288 11.072 0 21.824 5.728 27.744 16l96.032 166.272c8.832 15.296 3.584 34.88-11.712 43.712-15.296 8.896-34.912 3.616-43.712-11.712l-96.032-166.272c-8.864-15.296-3.584-34.88 11.712-43.712zM283.712 880c-8.832 15.328-28.416 20.608-43.712 11.712-15.328-8.832-20.544-28.416-11.712-43.712l96.032-166.272c5.92-10.272 16.672-16 27.744-16 5.408 0 10.944 1.376 15.968 4.288 15.328 8.832 20.544 28.416 11.712 43.712l-96.032 166.272zM80 644.288l166.304-96c5.056-2.912 10.56-4.288 15.968-4.288 11.072 0 21.824 5.728 27.744 16 8.832 15.328 3.584 34.88-11.712 43.712l-166.304 96c-15.36 8.864-34.88 3.616-43.712-11.712s-3.584-34.88 11.712-43.712zM512 192c-17.664 0-32-14.336-32-32v-192c0-17.664 14.336-32 32-32s32 14.336 32 32v192c0 17.664-14.336 32-32 32zM944 251.712l-166.272 96c-15.328 8.864-34.88 3.584-43.712-11.712s-3.584-34.88 11.712-43.712l166.272-96c5.024-2.912 10.528-4.288 15.968-4.288 11.072 0 21.824 5.728 27.744 16 8.864 15.328 3.616 34.88-11.712 43.712zM699.68 214.272c-8.864 15.328-28.448 20.608-43.712 11.712-15.328-8.832-20.576-28.416-11.712-43.712l96.032-166.272c5.952-10.272 16.672-16 27.744-16 5.44 0 10.944 1.376 15.968 4.288 15.328 8.832 20.576 28.416 11.712 43.712l-96.032 166.272zM368.032 225.984c-15.328 8.896-34.912 3.616-43.712-11.712l-96.032-166.272c-8.832-15.296-3.616-34.88 11.712-43.712 5.024-2.912 10.56-4.288 15.968-4.288 11.072 0 21.824 5.728 27.744 16l96.032 166.272c8.832 15.296 3.584 34.88-11.712 43.712zM290.016 336c-8.864 15.296-28.384 20.576-43.712 11.712l-166.304-96c-15.296-8.832-20.544-28.384-11.712-43.712 5.92-10.272 16.672-16 27.744-16 5.408 0 10.912 1.376 15.968 4.288l166.304 96c15.296 8.832 20.544 28.384 11.712 43.712z" />
</font>
</defs>
</svg>
